<svg width="1440" height="800" viewBox="0 0 1440 800" fill="none" xmlns="http://www.w3.org/2000/svg">
<g clip-path="url(#clip0_3247_4857)">
<rect width="1440" height="800" fill="white"/>
<g clip-path="url(#clip1_3247_4857)">
<path opacity="0.1" fill-rule="evenodd" clip-rule="evenodd" d="M995.955 209.731C1099.08 199.974 1218.22 180.846 1291.6 253.902C1365.03 327.006 1352.77 446.95 1337.09 549.339C1323.99 634.938 1280.41 711.787 1213.15 766.384C1152.55 815.576 1073.85 820.912 995.955 826.251C909.269 832.193 818.917 846.734 746.766 798.352C660.968 740.818 582.029 652.588 583.009 549.339C583.985 446.531 672.006 370.338 751.448 305.005C821.667 247.257 905.42 218.296 995.955 209.731Z" fill="#FF7A00"/>
<path opacity="0.1" fill-rule="evenodd" clip-rule="evenodd" d="M13.1847 513.484C87.5558 517.865 153.621 541.197 218.113 578.488C317.859 636.163 477.544 668.206 479.974 783.389C482.395 898.129 314.37 922.758 226.945 997.122C152.616 1060.35 109.309 1163.61 13.1847 1180.44C-95.4482 1199.46 -205.526 1157.15 -291.305 1087.84C-387.601 1010.03 -495.166 906.016 -478.226 783.389C-461.72 663.902 -323.133 610.911 -217.398 552.837C-146.354 513.816 -67.7326 508.719 13.1847 513.484Z" fill="#FF7A00"/>
<path opacity="0.1" fill-rule="evenodd" clip-rule="evenodd" d="M-30.1579 69.5125C-75.9453 -24.1232 32.168 -125.096 64.4767 -228.472C92.6966 -318.766 64.3963 -434.17 144.515 -489.376C224.957 -544.806 325.425 -487.587 418.866 -472.669C514.078 -457.468 623.349 -471.55 686.344 -402.874C755.707 -327.254 775.515 -214.682 750.009 -111.657C724.642 -9.19328 647.81 76.2337 553.995 131.712C464.958 184.364 362.551 187.248 262.555 176.6C153.396 164.977 16.263 164.444 -30.1579 69.5125Z" fill="#FF7A00"/>
</g>
</g>
<defs>
<clipPath id="clip0_3247_4857">
<rect width="1440" height="800" fill="white"/>
</clipPath>
<clipPath id="clip1_3247_4857">
<rect width="1440" height="800" fill="white"/>
</clipPath>
</defs>
</svg>
