<svg width="1440" height="839" viewBox="0 0 1440 839" fill="none" xmlns="http://www.w3.org/2000/svg">
<g clip-path="url(#clip0_3482_4867)">
<rect width="1440" height="839" fill="white"/>
<path opacity="0.1" fill-rule="evenodd" clip-rule="evenodd" d="M1208.56 132.852C1292.99 72.8401 1386.6 -3.29322 1486.68 23.2829C1586.83 49.8761 1636.17 159.885 1673.8 256.393C1705.25 337.075 1705.93 425.416 1674.98 506.329C1647.1 579.231 1581.6 623.205 1516.82 666.775C1444.72 715.263 1373.74 773.033 1287.06 767.208C1183.99 760.281 1071.52 723.341 1020.74 633.435C970.181 543.913 1008.31 433.917 1044.45 337.616C1076.38 252.495 1134.43 185.538 1208.56 132.852Z" fill="#FF7A00"/>
<path opacity="0.1" fill-rule="evenodd" clip-rule="evenodd" d="M-38.274 701.434C20.3571 659.76 85.3624 606.891 154.862 625.346C224.406 643.813 258.674 720.206 284.799 787.224C306.64 843.251 307.118 904.597 285.625 960.786C266.26 1011.41 220.779 1041.95 175.79 1072.2C125.721 1105.88 76.4327 1145.99 16.2433 1141.95C-55.3319 1137.14 -133.439 1111.48 -168.699 1049.05C-203.809 986.885 -177.329 910.501 -152.238 843.627C-130.06 784.517 -89.7473 738.02 -38.274 701.434Z" fill="#FF7A00"/>
<path opacity="0.1" fill-rule="evenodd" clip-rule="evenodd" d="M159.955 -318.269C263.081 -328.026 382.216 -347.154 455.601 -274.098C529.034 -200.994 516.766 -81.0501 501.093 21.3393C487.99 106.938 444.415 183.787 377.154 238.384C316.553 287.576 237.847 292.912 159.955 298.251C73.2692 304.193 -17.0833 318.734 -89.2337 270.352C-175.032 212.818 -253.971 124.588 -252.991 21.3393C-252.015 -81.4692 -163.994 -157.662 -84.5517 -222.995C-14.3332 -280.743 69.4195 -309.704 159.955 -318.269Z" fill="#FF7A00"/>
</g>
<defs>
<clipPath id="clip0_3482_4867">
<rect width="1440" height="839" fill="white"/>
</clipPath>
</defs>
</svg>
