<svg width="590" height="800" viewBox="0 0 590 800" fill="none" xmlns="http://www.w3.org/2000/svg">
<g clip-path="url(#clip0_962_4304)">
<path d="M374.1 513.285C371.971 523.511 372.607 530.04 372.041 535.346C371.683 538.682 373.745 542.955 380.128 549.029C385.733 554.334 406.829 581.676 415.103 584.532L422.78 568.593C422.78 568.593 408.809 543.291 400.865 534.17C400.865 534.17 403.136 527.329 405.772 519.167L374.1 513.285L374.1 513.285Z" fill="#EACCB0"/>
<path d="M506.99 580.956H412.794C407.206 604.12 403.161 608.874 409.044 686.818C412.224 728.965 414.222 764.95 416.236 800H454.324C455.184 730.354 456.785 643.674 459.447 641.184H460.084C462.746 643.674 464.347 730.355 465.207 800H503.834C505.927 768.277 508 735.13 510.814 692.411C515.521 620.948 514.539 607.505 506.99 580.956Z" fill="#303030"/>
<path d="M460.706 514.365C466.015 496.602 501.402 438.894 500.314 436.541C499.183 434.092 503.761 436.349 490.083 428.883C476.402 421.442 478.22 408.095 478.097 404.302H442.831C442.712 408.095 444.526 421.442 430.848 428.883C417.17 436.349 422.516 437.093 421.385 439.541C420.298 441.894 454.914 496.602 460.223 514.365V516.238C460.281 515.95 460.376 515.59 460.463 515.254C460.552 515.59 460.65 515.95 460.706 516.238V514.365Z" fill="#EACCB0"/>
<path d="M436.905 422.522C432.373 426.026 423.328 428.907 414.525 432.484C405.72 436.061 391.524 438.365 392.622 440.021C393.724 441.678 403.242 452.576 404.068 468.803C404.891 485.031 405.444 516.405 409.847 532.369C414.248 548.333 410.067 571.449 415.322 575.579C420.577 579.683 448.371 582.732 460.754 582.732V464.939C460.754 464.939 446.538 415.105 436.905 422.522V422.522Z" fill="#D2CDE7"/>
<path d="M483.763 422.522C488.298 426.026 497.341 428.907 506.146 432.484C514.951 436.061 529.147 438.365 528.045 440.021C526.946 441.678 517.428 452.576 516.602 468.803C515.776 485.031 515.226 516.405 510.824 532.369C506.421 548.333 510.603 571.449 505.348 575.579C500.09 579.683 472.298 582.732 459.916 582.732V464.939C459.916 464.939 474.132 415.105 483.763 422.522V422.522Z" fill="#C9C0D0"/>
<path d="M412.038 581.411C410.584 585.9 430.09 592.118 459.729 592.118C489.373 592.118 506.609 585.852 507.396 584.292C508.184 582.708 506.467 573.681 506.467 573.681C506.467 573.681 489.181 581.411 459.906 581.411C429.178 581.411 414.407 571.329 413.519 572.938C412.485 574.786 412.605 579.683 412.038 581.411Z" fill="black"/>
<path d="M405.772 530.185C405.175 527.016 405.765 524.327 405.965 521.038H405.962C408.464 505.388 410.314 460.954 406.32 454.161C401.486 445.927 399.916 437.069 392.935 438.918C387.829 440.286 382.654 453.537 381.405 467.82C380.4 479.318 372.354 503.924 371.338 515.398C369.497 524.136 369.648 536.283 371.228 540.075C372.807 543.868 378.424 554.022 380.219 552.63C382.016 551.238 408.248 539.379 407.206 537.987C406.169 536.594 406.345 533.234 405.773 530.185L405.772 530.185Z" fill="#D2CDE7"/>
<path d="M371.988 541.731C370.663 542.356 374.333 546.436 376.042 548.909C377.754 551.381 379.835 557.094 382.973 554.982C384.812 553.757 407.713 543.363 408.644 541.803C409.737 539.954 407.074 535.249 406.435 534.002C405.705 532.561 406.654 527.688 405.764 527.592C404.87 527.496 382.136 536.882 371.988 541.731H371.988Z" fill="#B7AAAF"/>
<path d="M545.9 513.285C548.029 523.511 547.393 530.04 547.957 535.346C548.315 538.682 546.252 542.955 539.87 549.029C534.267 554.334 513.172 581.676 504.897 584.532L497.22 568.593C497.22 568.593 511.191 543.291 519.135 534.17C519.135 534.17 516.863 527.329 514.228 519.167L545.9 513.285Z" fill="#EACCB0"/>
<path d="M514.228 530.185C514.825 527.016 514.235 524.327 514.033 521.038H514.038C511.537 505.388 509.683 460.954 513.68 454.161C518.513 445.927 520.084 437.069 527.063 438.918C532.171 440.286 537.344 453.537 538.592 467.82C539.6 479.318 547.644 503.924 548.662 515.398C550.503 524.136 550.352 536.283 548.772 540.075C547.193 543.868 541.573 554.022 539.778 552.63C537.984 551.238 511.752 539.379 512.791 537.987C513.828 536.594 513.656 533.233 514.228 530.185Z" fill="#D2CDE7"/>
<path d="M548.012 541.731C549.337 542.356 545.667 546.436 543.955 548.909C542.244 551.381 540.165 557.094 537.028 554.982C535.187 553.757 512.288 543.363 511.354 541.803C510.264 539.954 512.927 535.249 513.565 534.002C514.293 532.561 513.347 527.688 514.235 527.592C515.128 527.496 537.863 536.882 548.012 541.731Z" fill="#C0B5BE"/>
<path d="M463.978 451.76H456.961C456.275 454.521 446.284 519.07 446.2 527.184C446.125 534.241 455.913 555.39 460.548 557.383C465.183 555.39 474.817 534.241 474.742 527.184C474.658 519.07 464.665 454.521 463.978 451.76Z" fill="#EFEFEF"/>
<path d="M468.846 440.789C468.76 439.781 466.947 438.341 466.177 437.597C463.823 435.341 462.35 434.02 461.162 433.468H459.78C458.592 434.02 457.119 435.341 454.765 437.597C453.994 438.341 452.182 439.781 452.096 440.789C451.736 444.943 454.055 447.295 456.095 451.856C456.251 452.216 456.591 452.48 456.956 452.672C457.314 452.84 457.734 452.864 458.14 452.888L460.039 453.032V453.08L460.468 453.057L460.9 453.08V453.032L462.799 452.888C463.207 452.864 463.627 452.84 463.982 452.672C464.349 452.48 464.69 452.216 464.844 451.856C466.884 447.294 469.204 444.942 468.846 440.789H468.846Z" fill="white"/>
<path d="M456.241 436.973V436.205C455.994 436.444 455.713 436.709 455.439 436.973H456.241Z" fill="black"/>
<path d="M456.241 548.717V543.027H453.721V548.381L453.907 548.717H456.241Z" fill="black"/>
<path d="M457.381 540.747H459.9V535.044H457.381V540.747Z" fill="black"/>
<path d="M457.381 532.753H459.9V527.052H457.381V532.753Z" fill="black"/>
<path d="M448.92 516.79V511.101H447.99C447.716 513.117 447.469 515.037 447.249 516.79H448.92Z" fill="black"/>
<path d="M448.919 504.331C448.706 505.867 448.499 507.356 448.297 508.82H448.919V504.331Z" fill="black"/>
<path d="M457.381 524.783H459.9V519.081H457.381V524.783Z" fill="black"/>
<path d="M448.919 524.783V519.07H446.968C446.691 521.351 446.481 523.295 446.351 524.783H448.92H448.919Z" fill="black"/>
<path d="M451.082 543.027C451.567 544.084 452.066 545.14 452.578 546.173V543.027H451.082Z" fill="black"/>
<path d="M452.578 540.747V535.034H450.06V540.675L450.086 540.747H452.578Z" fill="black"/>
<path d="M457.381 452.936H459.9V447.234H457.381V452.936Z" fill="black"/>
<path d="M457.381 516.79H459.9V511.088H457.381V516.79Z" fill="black"/>
<path d="M450.06 508.82H452.579V503.12H450.06V508.82Z" fill="black"/>
<path d="M457.381 460.906H459.9V455.206H457.381V460.906Z" fill="black"/>
<path d="M457.381 548.717H459.9V543.017H457.381V548.717Z" fill="black"/>
<path d="M457.381 444.943H459.9V439.24H457.381V444.943Z" fill="black"/>
<path d="M457.381 468.9H459.9V463.196H457.381V468.9Z" fill="black"/>
<path d="M457.381 500.826H459.9V495.127H457.381V500.826Z" fill="black"/>
<path d="M457.381 508.82H459.9V503.12H457.381V508.82Z" fill="black"/>
<path d="M457.381 492.857H459.9V487.154H457.381V492.857Z" fill="black"/>
<path d="M457.381 484.863H459.9V479.16H457.381V484.863Z" fill="black"/>
<path d="M457.381 476.893H459.9V471.191H457.381V476.893Z" fill="black"/>
<path d="M447.912 535.034C448.216 535.946 448.557 536.882 448.92 537.843V535.034H447.912Z" fill="black"/>
<path d="M453.721 532.753H456.242V527.052H453.721V532.753Z" fill="black"/>
<path d="M453.721 524.783H456.242V519.081H453.721V524.783Z" fill="black"/>
<path d="M453.721 540.747H456.242V535.044H453.721V540.747Z" fill="black"/>
<path d="M453.721 516.79H456.242V511.088H453.721V516.79Z" fill="black"/>
<path d="M453.721 500.826H456.242V495.127H453.721V500.826Z" fill="black"/>
<path d="M453.721 508.82H456.242V503.12H453.721V508.82Z" fill="black"/>
<path d="M461.042 532.753H463.56V527.052H461.042V532.753Z" fill="black"/>
<path d="M472.02 532.753H473.755C474.382 530.521 474.756 528.576 474.741 527.184L474.737 527.064H472.02V532.753Z" fill="black"/>
<path d="M452.578 479.294C452.304 481.119 452.023 482.991 451.743 484.863H452.578V479.294Z" fill="black"/>
<path d="M448.92 527.064H446.204L446.2 527.184C446.185 528.576 446.564 530.521 447.202 532.753H448.919V527.064H448.92Z" fill="black"/>
<path d="M452.578 487.144H451.401C451.12 489.039 450.84 490.96 450.563 492.857H452.578V487.144Z" fill="black"/>
<path d="M450.06 524.783H452.579V519.081H450.06V524.783Z" fill="black"/>
<path d="M452.578 500.826V495.137H450.23C450.175 495.521 450.118 495.905 450.06 496.313V500.826H452.578Z" fill="black"/>
<path d="M453.721 444.943H456.242V439.24H453.721V444.943Z" fill="black"/>
<path d="M452.578 444.631V439.781C452.316 440.141 452.121 440.478 452.095 440.789C451.97 442.229 452.182 443.454 452.578 444.63V444.631Z" fill="black"/>
<path d="M450.06 532.753H452.579V527.052H450.06V532.753Z" fill="black"/>
<path d="M453.721 492.857H456.242V487.154H453.721V492.857Z" fill="black"/>
<path d="M450.06 516.79H452.579V511.088H450.06V516.79Z" fill="black"/>
<path d="M453.73 447.223C454.443 448.591 455.288 450.056 456.094 451.856L456.241 452.073V447.223H453.73Z" fill="black"/>
<path d="M453.721 484.863H456.242V479.16H453.721V484.863Z" fill="black"/>
<path d="M456.241 471.18H453.819C453.785 471.397 453.752 471.589 453.721 471.805V476.894H456.241V471.181V471.18Z" fill="black"/>
<path d="M456.241 455.841C456.011 457.257 455.734 458.962 455.425 460.906H456.241V455.841Z" fill="black"/>
<path d="M456.241 463.187H455.063C454.784 464.963 454.484 466.859 454.172 468.9H456.241V463.187Z" fill="black"/>
<path d="M456.241 550.997H455.208C455.555 551.573 455.9 552.125 456.241 552.653V550.997Z" fill="black"/>
<path d="M468.358 532.753H470.878V527.052H468.358V532.753Z" fill="black"/>
<path d="M468.358 524.783H470.878V519.081H468.358V524.783Z" fill="black"/>
<path d="M468.358 516.79H470.878V511.088H468.358V516.79Z" fill="black"/>
<path d="M468.358 508.82H470.878V503.12H468.358V508.82Z" fill="black"/>
<path d="M470.879 496.29C470.821 495.905 470.766 495.521 470.709 495.137H468.358V500.826H470.879V496.29Z" fill="black"/>
<path d="M464.7 484.863H467.219V479.16H464.7V484.863Z" fill="black"/>
<path d="M464.7 436.973H465.5C465.231 436.708 464.945 436.444 464.7 436.205V436.973Z" fill="black"/>
<path d="M464.7 492.857H467.219V487.154H464.7V492.857Z" fill="black"/>
<path d="M467.219 471.804C467.185 471.588 467.156 471.396 467.122 471.18H464.7V476.893H467.218V471.803L467.219 471.804Z" fill="black"/>
<path d="M468.358 540.747H470.878V535.044H468.358V540.747Z" fill="black"/>
<path d="M469.2 484.863C468.916 482.991 468.637 481.119 468.359 479.294V484.863H469.2Z" fill="black"/>
<path d="M464.7 500.826H467.219V495.127H464.7V500.826Z" fill="black"/>
<path d="M457.381 436.973H459.902V433.467H459.779C459.112 433.779 458.335 434.356 457.382 435.197V436.973H457.381Z" fill="black"/>
<path d="M461.042 436.973H463.56V435.197C462.607 434.356 461.829 433.78 461.162 433.467H461.042V436.973Z" fill="black"/>
<path d="M463.56 550.997H461.042V557.07C461.799 556.565 462.645 555.702 463.56 554.477V550.997Z" fill="black"/>
<path d="M472.02 508.82H472.641C472.442 507.356 472.236 505.843 472.02 504.307V508.82Z" fill="black"/>
<path d="M459.902 550.997H457.381V554.286C458.293 555.51 459.143 556.422 459.902 556.975V550.997Z" fill="black"/>
<path d="M472.02 519.07V524.783H474.59C474.459 523.295 474.247 521.351 473.974 519.07H472.02Z" fill="black"/>
<path d="M468.358 546.364C468.899 545.284 469.422 544.156 469.928 543.027H468.358V546.364Z" fill="black"/>
<path d="M464.7 543.027V548.717H467.139L467.219 548.573V543.027H464.7Z" fill="black"/>
<path d="M472.02 535.034V537.963C472.396 536.954 472.742 535.994 473.054 535.034H472.02Z" fill="black"/>
<path d="M464.7 550.997V552.845C465.08 552.269 465.466 551.669 465.852 550.997H464.7Z" fill="black"/>
<path d="M472.02 511.101V516.79H473.692C473.469 515.037 473.222 513.117 472.951 511.101H472.02Z" fill="black"/>
<path d="M461.042 508.82H463.56V503.12H461.042V508.82Z" fill="black"/>
<path d="M461.042 468.9H463.56V463.196H461.042V468.9Z" fill="black"/>
<path d="M461.042 484.863H463.56V479.16H461.042V484.863Z" fill="black"/>
<path d="M461.042 476.893H463.56V471.191H461.042V476.893Z" fill="black"/>
<path d="M461.042 452.936H463.56V447.234H461.042V452.936Z" fill="black"/>
<path d="M461.042 460.906H463.56V455.206H461.042V460.906Z" fill="black"/>
<path d="M461.042 492.857H463.56V487.154H461.042V492.857Z" fill="black"/>
<path d="M464.7 508.82H467.219V503.12H464.7V508.82Z" fill="black"/>
<path d="M461.042 524.783H463.56V519.081H461.042V524.783Z" fill="black"/>
<path d="M461.042 540.747H463.56V535.044H461.042V540.747Z" fill="black"/>
<path d="M461.042 444.943H463.56V439.24H461.042V444.943Z" fill="black"/>
<path d="M461.042 500.826H463.56V495.127H461.042V500.826Z" fill="black"/>
<path d="M461.042 516.79H463.56V511.088H461.042V516.79Z" fill="black"/>
<path d="M464.7 540.747H467.219V535.044H464.7V540.747Z" fill="black"/>
<path d="M465.516 460.906C465.207 458.962 464.93 457.257 464.7 455.865V460.906H465.516Z" fill="black"/>
<path d="M461.042 548.717H463.56V543.017H461.042V548.717Z" fill="black"/>
<path d="M464.7 516.79H467.219V511.088H464.7V516.79Z" fill="black"/>
<path d="M464.7 524.783H467.219V519.081H464.7V524.783Z" fill="black"/>
<path d="M464.7 532.753H467.219V527.052H464.7V532.753Z" fill="black"/>
<path d="M464.7 452.048L464.844 451.856C465.653 450.056 466.498 448.591 467.208 447.223H464.7V452.048H464.7Z" fill="black"/>
<path d="M468.358 492.857H470.375C470.098 490.961 469.818 489.04 469.534 487.144H468.358V492.857Z" fill="black"/>
<path d="M468.846 440.789C468.82 440.478 468.625 440.141 468.359 439.781V444.631C468.76 443.454 468.971 442.23 468.846 440.79V440.789Z" fill="black"/>
<path d="M464.7 444.943H467.219V439.24H464.7V444.943Z" fill="black"/>
<path d="M464.7 468.9H466.769C466.455 466.859 466.157 464.963 465.879 463.187H464.7V468.9Z" fill="black"/>
<path d="M440.708 415.969C441.869 414 444.899 420.746 460.572 432.748C462.602 434.309 450.115 440.982 450.638 446.503C451.162 452.048 433.468 431.188 434.372 423.794C434.509 422.69 437.728 421.01 440.708 415.969H440.708Z" fill="#9089B0"/>
<path d="M480.229 415.969C479.067 414 476.037 420.746 460.362 432.748C458.334 434.309 470.818 440.982 470.295 446.503C469.772 452.048 487.467 431.188 486.563 423.794C486.427 422.69 483.205 421.01 480.229 415.969Z" fill="#A79ECD"/>
<path d="M428.261 427.083C433.77 443.959 451.493 485.295 463.467 496.073C465.56 497.946 467.293 572.77 467.293 572.77C467.293 572.77 443.927 600.735 441.156 601.384C438.391 602.008 410.14 587.485 410.264 584.532C411.417 556.734 407.83 529.417 406.834 517.558C405.839 505.676 408.038 487.648 406.294 477.998C404.549 468.372 392.618 439.421 394.332 438.653C396.048 437.885 427.62 425.139 428.261 427.083Z" fill="#5B5A50"/>
<path d="M491.965 426.891C486.456 443.766 466.441 490.408 453.774 496.842C451.282 498.114 452.873 572.771 452.873 572.771C452.873 572.771 476.24 600.736 479.008 601.384C481.774 602.009 509.394 587.485 509.271 584.532C508.119 556.735 512.335 529.417 513.328 517.559C514.324 505.676 512.123 487.648 513.871 477.999C515.617 468.372 527.547 439.23 525.83 438.462C524.116 437.694 492.607 424.947 491.966 426.892L491.965 426.891Z" fill="#5B5A50"/>
<path d="M462.372 502.915C462.372 504.451 461.129 505.7 459.595 505.7C458.059 505.7 456.814 504.451 456.814 502.915C456.814 501.379 458.058 500.131 459.595 500.131C461.129 500.131 462.372 501.379 462.372 502.915Z" fill="black"/>
<path d="M462.372 522.167C462.372 523.703 461.129 524.952 459.595 524.952C458.059 524.952 456.814 523.703 456.814 522.167C456.814 520.631 458.058 519.383 459.595 519.383C461.129 519.383 462.372 520.631 462.372 522.167Z" fill="black"/>
<path d="M462.372 541.395C462.372 542.931 461.129 544.18 459.595 544.18C458.059 544.18 456.814 542.931 456.814 541.395C456.814 539.859 458.058 538.634 459.595 538.634C461.129 538.634 462.372 539.859 462.372 541.395Z" fill="black"/>
<path d="M462.372 560.191C462.372 561.728 461.129 562.952 459.595 562.952C458.059 562.952 456.814 561.728 456.814 560.191C456.814 558.655 458.058 557.407 459.595 557.407C461.129 557.407 462.372 558.655 462.372 560.191Z" fill="black"/>
<path d="M494.17 374.536C490.569 371.751 488.768 375.375 488.113 376.888C487.323 378.76 489.095 359.628 488.113 354.323C487.199 349.378 468.592 352.45 460.534 352.667H459.996H459.475C451.714 352.45 435.388 349.378 434.473 354.323C433.489 359.628 435.263 378.76 434.473 376.888C433.818 375.375 432.018 371.75 428.417 374.536C424.817 377.32 430.052 389.995 434.635 389.155C439.219 388.315 435.417 401.709 442.966 408.119C450.156 414.216 452.592 416.256 461.294 415.969C469.994 416.256 472.43 414.216 479.622 408.119C487.169 401.709 483.367 388.315 487.949 389.155C492.534 389.995 497.772 377.32 494.169 374.536H494.17Z" fill="#F2D4B6"/>
<path d="M433.481 383.778C432.81 383.946 433.266 380.009 431.014 376.624C429.238 373.935 428.417 374.536 428.417 374.536C427.375 372.951 426.311 366.517 426.139 364.766C425.728 360.685 426.079 357.828 426.415 355.019C427.068 349.595 430.369 342.585 434.339 338.72C437.411 335.72 441.281 333.704 445.381 332.263C453.331 329.478 458.88 329.91 468.599 331.087C470.525 331.327 473.724 332.359 475.647 332.191C477.954 331.975 480.4 329.262 479.86 327.461C485.731 334.135 491.656 337.88 495.367 345.873C499.083 353.867 498.677 366.854 494.921 374.824C493.082 374.199 491.622 375.808 490.268 378.088C488.915 380.344 489.441 383.873 488.092 383.777C486.274 377.632 486.682 372.135 487.037 365.726C474.405 369.446 461.39 371.366 450.862 363.637C448.706 362.053 446.617 359.965 443.347 360.012C439.572 360.084 438.057 362.316 438.585 365.941C438.851 367.766 438.983 370.214 439.089 371.294C439.454 375.063 437.104 379.696 436.24 380.609C435.679 381.184 434.303 383.586 433.481 383.777V383.778Z" fill="#D7B56D"/>
<path fill-rule="evenodd" clip-rule="evenodd" d="M453.886 401.789C458.829 403.607 463.427 403.76 468.294 401.892L453.886 401.789ZM471.466 380.606C472.849 380.606 473.969 381.278 473.969 382.108C473.969 382.937 472.849 383.609 471.466 383.609C470.084 383.609 468.964 382.937 468.964 382.108C468.964 381.279 470.084 380.606 471.466 380.606ZM450.438 380.606C451.82 380.606 452.941 381.278 452.941 382.108C452.941 382.937 451.82 383.609 450.438 383.609C449.056 383.609 447.936 382.937 447.936 382.108C447.936 381.279 449.056 380.606 450.438 380.606Z" fill="#434242"/>
<path d="M453.886 401.789C458.829 403.607 463.427 403.76 468.294 401.892M471.466 380.606C472.849 380.606 473.969 381.278 473.969 382.108C473.969 382.937 472.849 383.609 471.466 383.609C470.084 383.609 468.964 382.937 468.964 382.108C468.964 381.279 470.084 380.606 471.466 380.606ZM450.438 380.606C451.82 380.606 452.941 381.278 452.941 382.108C452.941 382.937 451.82 383.609 450.438 383.609C449.056 383.609 447.936 382.937 447.936 382.108C447.936 381.279 449.056 380.606 450.438 380.606Z" stroke="#434242" stroke-width="0.755757" stroke-miterlimit="22.9256" stroke-linecap="round"/>
<path d="M450.349 389.165C454.301 389.165 457.505 385.961 457.505 382.009C457.505 378.056 454.301 374.852 450.349 374.852C446.396 374.852 443.192 378.056 443.192 382.009C443.192 385.961 446.396 389.165 450.349 389.165Z" stroke="#2B2A29" stroke-width="0.755757" stroke-miterlimit="22.9256"/>
<path d="M471.074 389.165C475.026 389.165 478.23 385.961 478.23 382.009C478.23 378.056 475.026 374.852 471.074 374.852C467.122 374.852 463.917 378.056 463.917 382.009C463.917 385.961 467.122 389.165 471.074 389.165Z" stroke="#2B2A29" stroke-width="0.755757" stroke-miterlimit="22.9256"/>
<path d="M457.253 380.328C457.253 380.328 461.816 377.339 464.044 380.775" stroke="#2B2A29" stroke-width="0.755757" stroke-miterlimit="22.9256"/>
<path d="M478.398 381.656C478.398 381.656 486.582 373.563 488.81 376.998" stroke="#2B2A29" stroke-width="0.755757" stroke-miterlimit="22.9256"/>
<path d="M443.193 382.569C443.193 382.569 435.009 374.476 432.781 377.911" stroke="#2B2A29" stroke-width="0.755757" stroke-miterlimit="22.9256"/>
</g>
<g clip-path="url(#clip1_962_4304)">
<g clip-path="url(#clip2_962_4304)">
<path d="M396.817 577.916H309.182C302.487 595.362 299.289 603.762 302.449 622.046C305.608 640.33 317.034 707.542 315.858 740.729C315.174 759.987 320.338 804.897 324.548 844.597H343.795C344.103 826.129 344.826 806.699 346.329 790.476C350.664 743.668 347.494 733.37 349.469 721.02C351.011 711.434 350.067 656.861 352.995 632.758C355.933 656.861 354.989 711.434 356.521 721.02C358.496 733.37 355.336 743.668 359.661 790.476C361.164 806.689 361.8 826.12 361.993 844.597H381.298C385.604 804.897 390.796 759.91 390.122 740.729C388.957 707.542 400.372 640.33 403.541 622.046C406.701 603.752 403.503 595.352 396.808 577.916H396.817Z" fill="#F7DDCB"/>
<path d="M408.618 618.463C406.499 587.78 397.077 566.182 397.077 566.182H353.207H352.764H308.903C308.903 566.182 299.482 587.78 297.362 618.463C295.898 642.074 307.458 708.602 308.903 717.282C309.481 720.759 339.47 724.285 351.261 724.285C352.571 724.285 353.843 724.285 355.153 724.285C368.399 724.285 396.499 720.75 397.077 717.282C398.513 708.592 410.073 642.064 408.618 618.463Z" fill="black"/>
<path d="M388.196 431.748C385.19 425.429 386.558 396.557 386.336 373.996L352.986 381.616L319.635 373.996C319.413 396.557 320.781 425.429 317.776 431.748C314.972 437.644 348.275 446.468 352.735 447.624V447.749L352.986 447.682L353.236 447.749V447.624C357.687 446.478 390.989 437.644 388.186 431.748H388.196Z" fill="#866A5E"/>
<path d="M352.87 513.353C357.802 495.184 390.691 436.199 389.679 433.79C388.629 431.295 392.878 433.607 380.171 425.978C367.455 418.348 369.15 404.727 369.035 400.854H336.262C336.146 404.727 337.832 418.348 325.126 425.978C312.41 433.607 317.381 434.349 316.331 436.854C315.319 439.262 347.495 495.184 352.427 513.353V515.27C352.485 514.961 352.571 514.605 352.648 514.258C352.726 514.605 352.822 514.961 352.87 515.27V513.353Z" fill="#F7DDCB"/>
<path d="M372.281 401.509C371.771 402.01 371.241 402.492 370.701 402.964C369.035 404.428 367.253 405.767 365.335 406.884C363.707 407.838 361.973 408.628 360.172 409.216C358.534 409.736 356.839 410.083 355.134 410.256C353.005 410.468 350.828 410.41 348.718 410.073C346.984 409.803 345.288 409.331 343.651 408.695C341.82 407.973 340.077 407.038 338.439 405.95C336.493 404.649 334.692 403.147 333.006 401.519C325.848 394.602 325.906 377.146 324.182 378.379C320.232 381.028 317.698 373.129 317.207 368.438C316.716 363.746 318.854 361.771 320.829 363.746C322.804 365.721 322.833 363.524 323.382 360.943C323.565 360.114 323.777 359.295 324.018 358.477C324.384 357.234 324.808 356.001 325.28 354.797C325.867 353.284 326.532 351.81 327.284 350.375C328.131 348.747 329.085 347.177 330.145 345.683C331.291 344.084 332.572 342.562 333.998 341.194C335.501 339.74 337.158 338.449 338.94 337.379C340.867 336.223 342.947 335.318 345.105 334.701C347.639 333.979 350.23 333.68 352.86 333.68C355.394 333.68 357.918 334.046 360.345 334.759C362.494 335.385 364.555 336.301 366.472 337.457C368.245 338.535 369.892 339.836 371.385 341.291C372.792 342.659 374.063 344.171 375.21 345.78C376.269 347.273 377.213 348.843 378.052 350.462C378.793 351.887 379.458 353.361 380.036 354.864C380.508 356.068 380.922 357.292 381.279 358.525C381.52 359.324 381.731 360.134 381.905 360.952C382.454 363.524 382.483 365.731 384.458 363.756C386.433 361.781 388.571 363.756 388.08 368.447C387.589 373.139 385.055 381.038 381.105 378.389C379.381 377.156 379.439 394.621 372.281 401.528V401.509Z" fill="#FFE6D4"/>
<path d="M366.174 339.711C359.633 340.453 353.226 342.822 342.447 351.406C333.912 358.197 326.292 364.97 322.852 365.875C321.899 366.126 321.87 362.484 318.614 363.158C317.708 363.341 316.533 346.377 323.344 335.019C331.224 321.889 346.647 316.215 360.317 320.309C368.871 322.872 369.362 326.609 373.216 327.611C381.211 329.711 386.173 342.302 386.173 354.517C386.173 366.732 384.198 364.141 382.839 365.008C381.481 365.865 379.786 354.238 373.245 348.805C366.704 343.371 366.174 339.701 366.174 339.701V339.711Z" fill="#866A5E"/>
<path d="M378.312 425.583L352.552 439.387L326.792 425.583C320.521 430.804 300.195 437.403 302.035 439.493C314.828 454.021 332.611 492.198 352.552 497.313C372.493 492.198 390.276 454.021 403.069 439.493C404.909 437.403 384.573 430.814 378.312 425.583Z" fill="#F5F5F5"/>
<path d="M330.077 418.974C331.388 416.759 334.788 424.35 352.398 437.827C354.681 439.58 340.645 447.056 341.243 453.279C341.83 459.502 321.947 436.054 322.968 427.75C323.122 426.508 326.735 424.629 330.077 418.965V418.974Z" fill="#EAEAEA"/>
<path d="M375.123 418.974C373.813 416.759 370.412 424.35 352.803 437.827C350.52 439.58 364.555 447.056 363.968 453.279C363.38 459.502 383.254 436.054 382.242 427.75C382.098 426.508 378.476 424.629 375.123 418.965V418.974Z" fill="#EAEAEA"/>
<path d="M350.134 550.537C349.864 532.6 348.679 522.928 351.117 505.193C351.386 503.218 352.86 497.39 353.14 495.425C353.766 491.003 359.758 481.331 363.39 474.675C367.436 467.257 372.753 456.718 377.425 450.755C384.516 441.709 385.672 438.154 385.97 436.758C387.348 430.505 383.572 428.82 387.907 430.554C392.232 432.288 420.14 441.786 421.296 443.376C421.498 443.655 421.662 444.031 421.835 444.387C421.517 444.821 419.485 456.39 418.618 460.899C415.371 477.902 411.133 487.448 406.393 501.995C405.873 502.573 401.461 520.183 400.208 526.887C398.474 536.116 396.731 550.258 400.478 560.209C401.702 563.465 403.898 569.101 403.898 569.101L403.908 569.082C405.391 574.467 410.805 597.308 410.805 597.308L410.796 597.259C411.422 600.525 412 603.8 412.308 606.796C413.03 613.723 389.66 621.073 373.071 623.096C356.482 625.11 356.049 613.145 351.868 601.026C347.687 588.907 350.712 588.329 350.134 550.537Z" fill="#EF7F1A"/>
<path d="M398.763 554.535C397.251 553.803 397.511 558.215 389.284 559.978C381.067 561.751 373.514 562.117 374.574 563.629C375.634 565.142 376.616 569.843 377.406 575.392C378.196 580.94 377.599 585.526 386.278 583.358C394.958 581.181 406.566 578.484 404.736 569.101C402.896 559.718 400.16 555.19 398.754 554.526L398.763 554.535Z" fill="#11100F"/>
<path d="M355.702 550.21C355.972 532.263 357.157 522.591 354.72 504.866C354.45 502.891 352.966 497.063 352.687 495.088C352.061 490.676 346.069 480.994 342.437 474.337C338.391 466.92 332.476 457.045 327.813 451.092C320.733 442.046 320.165 437.817 319.856 436.43C318.479 430.168 322.245 428.492 317.92 430.216C313.595 431.95 285.677 441.449 284.531 443.038C284.328 443.318 284.165 443.694 283.991 444.05C284.309 444.484 286.351 456.053 287.209 460.562C290.455 477.565 294.694 487.111 299.434 501.658C299.954 502.236 304.366 519.845 305.618 526.55C307.352 535.779 309.096 549.921 305.348 559.872C304.115 563.128 301.929 568.764 301.929 568.764L301.909 568.745C300.426 574.139 295.012 596.97 295.012 596.97L295.021 596.922C294.405 600.188 293.817 603.463 293.509 606.459C292.786 613.386 316.157 620.736 332.746 622.759C349.334 624.772 349.768 612.808 353.949 600.689C358.13 588.57 355.105 587.992 355.683 550.21H355.702Z" fill="#EF7F1A"/>
<path d="M397.598 445.37C395.257 443.626 395.083 440.004 391.779 434.089C389.563 430.12 385.739 427.856 384.284 426.623C381.414 424.186 379.757 424.831 379.757 424.831C379.757 424.831 381.481 425.496 382.04 428.762C382.232 429.937 383.822 433.578 377.281 442.855C371.597 450.919 354.402 482.767 353.005 494.49C351.608 482.767 333.719 450.919 328.035 442.855C321.494 433.578 323.074 429.937 323.276 428.762C323.835 425.486 325.559 424.831 325.559 424.831C325.559 424.831 323.902 424.186 321.032 426.623C319.577 427.856 315.752 430.12 313.537 434.089C310.233 440.004 310.05 443.626 307.718 445.37C305.377 447.104 325.935 448.462 325.935 448.462L312.988 458.24C312.988 458.24 327.496 474.829 337.302 481.986C340.337 484.202 350.317 494.519 353.043 496.908C355.375 493.074 364.979 484.202 368.014 481.986C377.82 474.838 392.328 458.24 392.328 458.24L379.381 448.462C379.381 448.462 399.939 447.113 397.598 445.37Z" fill="#B96053"/>
<path d="M352.995 512.119C352.995 514.046 351.425 515.616 349.498 515.616C347.562 515.616 346.001 514.046 346.001 512.119C346.001 510.183 347.572 508.623 349.498 508.623C351.434 508.623 352.995 510.193 352.995 512.119Z" fill="black"/>
<path d="M354.334 543.428C354.334 545.364 352.764 546.925 350.837 546.925C348.901 546.925 347.34 545.364 347.34 543.428C347.34 541.492 348.91 539.931 350.837 539.931C352.764 539.931 354.334 541.501 354.334 543.428Z" fill="black"/>
<path d="M354.228 569.891C354.228 571.76 352.715 573.262 350.856 573.262C348.988 573.262 347.485 571.75 347.485 569.891C347.485 568.032 348.997 566.519 350.856 566.519C352.715 566.519 354.228 568.032 354.228 569.891Z" fill="black"/>
<path d="M306.793 554.535C308.316 553.803 308.055 558.215 316.273 559.978C324.49 561.751 332.033 562.117 330.983 563.629C329.923 565.142 328.941 569.843 328.151 575.392C327.361 580.94 327.958 585.526 319.278 583.358C310.599 581.181 298.99 578.484 300.83 569.101C302.661 559.718 305.406 555.19 306.803 554.526L306.793 554.535Z" fill="#11100F"/>
<path d="M285.282 618.357C283.298 628.732 282.691 645.783 283.423 648.008C284.165 650.233 290.831 656.534 292.324 657.275C293.808 658.017 299.366 660.609 299.732 659.125C300.098 657.641 298.624 655.416 294.54 652.825C290.455 650.233 290.927 646.602 291.438 641.563C291.949 636.515 293.432 633.182 294.916 635.774C296.399 638.375 296.399 642.816 296.023 644.675C295.657 646.525 298.73 649.492 299.79 643.567C300.85 637.633 300.956 633.192 299.79 628.375C298.624 623.559 295.291 618.366 295.291 618.366H285.282V618.357Z" fill="#F7DDCB"/>
<path d="M284.54 443.038C282.238 442.923 268.395 520.192 268.009 538.688C267.624 557.184 279.184 615.341 279.184 620.938C279.184 626.535 296.341 619.156 300.378 618.829C304.404 618.501 292.295 544.844 293.634 537.147C294.983 529.44 301.697 503.796 301.206 495.261C300.705 486.726 303.181 444.011 284.55 443.048L284.54 443.038Z" fill="#EF7F1A"/>
<path d="M420.699 618.357C422.683 628.732 423.29 645.783 422.548 648.008C421.807 650.233 415.14 656.534 413.657 657.275C412.173 658.017 406.615 660.609 406.239 659.125C405.873 657.641 407.347 655.416 411.431 652.825C415.506 650.233 415.044 646.602 414.533 641.563C414.023 636.515 412.539 633.182 411.056 635.774C409.572 638.375 409.572 642.816 409.938 644.675C410.304 646.525 407.231 649.492 406.181 643.567C405.121 637.633 405.016 633.192 406.181 628.375C407.347 623.559 410.68 618.366 410.68 618.366H420.689L420.699 618.357Z" fill="#F7DDCB"/>
<path d="M420.631 443.414C425.12 441.43 437.596 520.192 437.991 538.688C438.376 557.184 426.816 615.341 426.816 620.938C426.816 626.535 409.649 619.156 405.622 618.829C401.596 618.501 413.705 544.844 412.366 537.147C411.017 529.44 404.303 503.796 404.803 495.261C405.304 486.726 403.58 450.976 420.641 443.424L420.631 443.414Z" fill="#EF7F1A"/>
<path fill-rule="evenodd" clip-rule="evenodd" d="M344.47 393.349C350.067 395.411 355.278 395.584 360.798 393.465L344.47 393.349ZM364.392 369.343C365.962 369.343 367.224 370.104 367.224 371.048C367.224 371.992 365.952 372.753 364.392 372.753C362.821 372.753 361.559 371.992 361.559 371.048C361.559 370.104 362.831 369.343 364.392 369.343ZM340.559 369.343C342.129 369.343 343.391 370.104 343.391 371.048C343.391 371.992 342.119 372.753 340.559 372.753C338.988 372.753 337.726 371.992 337.726 371.048C337.726 370.104 338.998 369.343 340.559 369.343Z" fill="#434242"/>
<path d="M344.47 393.349C350.067 395.411 355.278 395.584 360.798 393.465M364.392 369.343C365.962 369.343 367.224 370.104 367.224 371.048C367.224 371.992 365.952 372.753 364.392 372.753C362.821 372.753 361.559 371.992 361.559 371.048C361.559 370.104 362.831 369.343 364.392 369.343ZM340.559 369.343C342.129 369.343 343.391 370.104 343.391 371.048C343.391 371.992 342.119 372.753 340.559 372.753C338.988 372.753 337.726 371.992 337.726 371.048C337.726 370.104 338.998 369.343 340.559 369.343Z" stroke="#434242" stroke-width="0.757999" stroke-miterlimit="22.9256" stroke-linecap="round"/>
<path d="M340.963 378.447C345.443 378.447 349.074 374.815 349.074 370.335C349.074 365.856 345.443 362.224 340.963 362.224C336.483 362.224 332.852 365.856 332.852 370.335C332.852 374.815 336.483 378.447 340.963 378.447Z" stroke="#2B2A29" stroke-width="0.757999" stroke-miterlimit="22.9256"/>
<path d="M364.449 378.447C368.929 378.447 372.561 374.815 372.561 370.335C372.561 365.856 368.929 362.224 364.449 362.224C359.969 362.224 356.338 365.856 356.338 370.335C356.338 374.815 359.969 378.447 364.449 378.447Z" stroke="#2B2A29" stroke-width="0.757999" stroke-miterlimit="22.9256"/>
<path d="M348.785 368.428C348.785 368.428 353.958 365.037 356.482 368.938" stroke="#2B2A29" stroke-width="0.757999" stroke-miterlimit="22.9256"/>
<path d="M372.744 369.93C372.744 369.93 382.02 360.76 384.544 364.652" stroke="#2B2A29" stroke-width="0.757999" stroke-miterlimit="22.9256"/>
<path d="M332.851 370.971C332.851 370.971 323.575 361.8 321.051 365.692" stroke="#2B2A29" stroke-width="0.757999" stroke-miterlimit="22.9256"/>
</g>
</g>
<g clip-path="url(#clip3_962_4304)">
<g clip-path="url(#clip4_962_4304)">
<path d="M184.938 405.176C179.87 406.535 173.411 420.843 169.238 436.91C165.673 450.659 155.33 475.471 156.033 476.382C159.694 481.114 190.261 487.605 193.315 486.789C196.368 485.974 202.875 436.846 198.079 428.677C193.283 420.523 191.86 403.321 184.938 405.16V405.176Z" fill="#3493A9"/>
<path d="M307.062 405.176C312.13 406.535 318.589 420.843 322.761 436.91C326.327 450.659 336.67 475.471 335.967 476.382C332.306 481.114 301.739 487.605 298.685 486.789C295.632 485.974 289.125 436.846 293.921 428.677C298.717 420.523 300.14 403.321 307.062 405.16V405.176Z" fill="#3493A9"/>
<path d="M291.571 535.006H201.069C190.006 550.817 182.636 590.641 189.382 671.583C193.842 724.996 197.056 773.356 200.141 820.358H238.958C240.397 733.213 242.954 611.744 245.992 608.722H246.663C249.701 611.76 252.243 733.213 253.698 820.358H292.514C295.6 773.356 298.813 724.996 303.273 671.583C310.036 590.641 302.666 550.833 291.587 535.006H291.571Z" fill="#3493A9"/>
<path d="M246.232 481.961C251.22 463.592 284.457 403.993 283.434 401.563C282.378 399.037 286.679 401.371 273.825 393.665C260.972 385.959 262.682 372.195 262.571 368.278H229.445C229.334 372.195 231.044 385.959 218.191 393.665C205.337 401.371 210.357 402.122 209.302 404.648C208.279 407.078 240.796 463.592 245.784 481.961V483.896C245.848 483.592 245.928 483.224 246.008 482.873C246.088 483.224 246.184 483.592 246.232 483.896V481.961Z" fill="#CB9D83"/>
<path d="M265.4 369.109C264.889 369.605 264.377 370.084 263.849 370.548C262.203 372.003 260.444 373.314 258.542 374.433C256.927 375.376 255.216 376.159 253.442 376.735C251.827 377.263 250.149 377.598 248.454 377.774C246.344 377.982 244.185 377.918 242.107 377.598C240.396 377.326 238.702 376.863 237.087 376.239C235.281 375.52 233.554 374.609 231.939 373.522C230.021 372.243 228.23 370.74 226.568 369.141C219.485 362.299 219.549 345.033 217.839 346.248C213.922 348.87 211.428 341.052 210.932 336.416C210.437 331.78 212.563 329.829 214.514 331.78C216.464 333.73 216.496 331.556 217.039 329.014C217.215 328.198 217.439 327.383 217.663 326.568C218.031 325.337 218.446 324.122 218.91 322.923C219.485 321.436 220.157 319.965 220.892 318.542C221.724 316.928 222.667 315.377 223.722 313.906C224.857 312.323 226.12 310.821 227.527 309.462C229.014 308.023 230.66 306.744 232.419 305.689C234.321 304.538 236.384 303.642 238.51 303.035C241.02 302.316 243.578 302.028 246.184 302.028C248.678 302.028 251.188 302.395 253.602 303.099C255.728 303.722 257.774 304.618 259.661 305.769C261.419 306.84 263.05 308.119 264.521 309.558C265.912 310.917 267.175 312.403 268.294 314.002C269.333 315.473 270.276 317.024 271.107 318.638C271.843 320.061 272.498 321.516 273.074 323.003C273.538 324.186 273.953 325.401 274.305 326.616C274.545 327.415 274.753 328.214 274.928 329.014C275.472 331.556 275.504 333.73 277.454 331.78C279.405 329.829 281.531 331.78 281.035 336.416C280.54 341.052 278.046 348.87 274.129 346.248C272.418 345.017 272.482 362.299 265.4 369.141V369.109Z" fill="#CB9D83"/>
<path d="M308.549 405.911C307.382 404.36 280.268 396.111 275.904 394.417C275.904 394.417 271.587 401.962 260.86 414.576C256.895 419.244 247.431 427.11 246.168 427.11C244.841 427.11 235.616 419.676 231.172 414.576C220.157 401.962 216.128 394.417 216.128 394.417C211.764 396.111 185.081 404.408 183.595 405.655C182.795 406.327 182.268 406.503 182.012 407.206C190.885 410.308 193.81 432.705 195.137 445.639C195.793 472.001 200.797 474.671 201.948 487.797C202.843 498.028 202.188 504.775 198.527 526.741C197.647 532.033 192.164 554.462 191.013 558.907C190.869 559.45 191.284 559.978 191.86 559.978H301.019C301.435 559.978 301.723 559.594 301.627 559.211C300.555 555.278 294.672 532.129 293.553 526.741C289.141 505.462 288.885 494.463 290.132 487.797C292.722 473.824 297.566 460.411 297.566 444.616C298.893 431.666 301.419 410.739 310.292 407.654C310.02 406.95 308.949 406.375 308.581 405.895L308.549 405.911Z" fill="#4EA5B8"/>
<path d="M180.845 585.093C178.831 595.581 178.223 612.815 178.975 615.053C179.726 617.291 186.473 623.67 187.959 624.421C189.462 625.173 195.074 627.795 195.457 626.292C195.825 624.789 194.338 622.551 190.214 619.929C186.089 617.307 186.568 613.646 187.08 608.546C187.592 603.446 189.094 600.089 190.597 602.695C192.1 605.317 192.1 609.809 191.716 611.68C191.349 613.55 194.45 616.556 195.521 610.561C196.592 604.566 196.704 600.073 195.521 595.197C194.338 590.321 190.965 585.077 190.965 585.077H180.845V585.093Z" fill="#CB9D83"/>
<path d="M275.984 394.417C275.984 394.417 270.516 403.018 263.338 411.794C255.712 421.099 246.6 426.806 246.168 427.078C245.736 426.822 236.592 421.099 228.95 411.794C221.756 403.018 216.256 394.417 216.256 394.417L209.318 396.783C209.318 396.783 217.359 409.364 223.93 417.422C231.684 426.95 244.841 434.784 246.12 435.04V435.072L246.168 435.056L246.2 435.072V435.04C247.479 434.784 260.588 426.95 268.342 417.422C274.897 409.348 282.922 396.783 282.922 396.783L276 394.417H275.984Z" fill="#3493A9"/>
<path d="M183.275 508.82C183.787 505.654 187.464 493.296 188.839 486.502C179.566 484.615 173.139 483.128 164.65 480.714C163.723 491.506 161.933 507.812 161.837 512.688C161.469 531.377 180.366 582.184 180.366 587.827C180.366 587.827 189.462 589.41 191.732 586.388C192.755 585.046 182.012 516.589 183.259 508.804L183.275 508.82Z" fill="#CB9D83"/>
<path d="M310.26 585.093C312.274 595.581 312.882 612.815 312.13 615.053C311.379 617.291 304.632 623.67 303.145 624.421C301.643 625.173 296.031 627.795 295.648 626.292C295.28 624.789 296.767 622.551 300.891 619.929C305.016 617.307 304.536 613.646 304.025 608.546C303.513 603.446 302.01 600.089 300.508 602.695C299.005 605.317 299.005 609.809 299.389 611.68C299.756 613.55 296.655 616.556 295.584 610.561C294.512 604.566 294.401 600.073 295.584 595.197C296.767 590.321 300.14 585.077 300.14 585.077H310.26V585.093Z" fill="#CB9D83"/>
<path d="M307.83 508.82C307.318 505.654 303.641 493.296 302.266 486.502C311.539 484.615 317.965 483.128 326.47 480.714C327.398 491.506 329.188 507.812 329.284 512.688C329.636 531.377 310.755 582.184 310.755 587.827C310.755 587.827 301.659 589.41 299.373 586.388C298.365 585.046 309.093 516.589 307.846 508.804L307.83 508.82Z" fill="#CB9D83"/>
<path d="M231.7 307.927C238.318 308.678 244.777 311.076 255.68 319.741C264.313 326.616 272.003 333.458 275.488 334.369C276.447 334.625 276.479 330.948 279.773 331.62C280.684 331.812 281.867 314.657 274.977 303.179C267.015 289.91 251.428 284.17 237.615 288.311C228.966 290.901 228.47 294.674 224.586 295.697C216.496 297.823 211.492 310.533 211.492 322.891C211.492 335.233 214.066 332.339 215.441 333.202C216.816 334.082 217.951 322.603 224.57 317.119C231.188 311.636 231.716 307.911 231.716 307.911L231.7 307.927Z" fill="#534D46"/>
<path d="M264.921 507.924C264.921 504.791 281.595 507.652 290.404 511.713C290.404 511.713 291.075 531.361 292.85 538.14C294.608 544.918 296.239 554.191 296.239 554.191C296.239 554.191 292.85 553.999 280.588 553.04C268.326 552.096 263.034 551.952 263.034 551.553C263.034 551.153 264.937 508.724 264.937 507.908L264.921 507.924Z" fill="#3493A9"/>
<path d="M226.76 507.924C226.76 504.791 210.085 507.652 201.276 511.713C201.276 511.713 200.605 531.361 198.83 538.14C197.072 544.918 195.441 554.191 195.441 554.191C195.441 554.191 198.83 553.999 211.092 553.04C223.354 552.096 228.646 551.952 228.646 551.553C228.646 551.153 226.744 508.724 226.744 507.908L226.76 507.924Z" fill="#3493A9"/>
<path d="M225.177 387.718L225.449 387.318C225.033 387.095 224.298 387.35 223.834 387.542C220.621 388.757 204.618 396.687 205.449 434.368C205.465 435.295 206.248 436.047 207.176 436.031H207.271C208.167 435.951 208.854 435.199 208.822 434.304C208.247 408.149 216.368 396.095 221.388 391.891C222.459 390.867 224.202 388.997 225.161 387.734L225.177 387.718Z" fill="black"/>
<path d="M203.499 491.506H203.387C197.12 490.802 196.8 484.631 196.624 481.322L196.592 480.634C195.953 468.324 195.569 461.386 195.457 460.011C195.425 459.707 195.665 459.436 195.969 459.404C196.273 459.388 196.544 459.612 196.576 459.915C196.688 461.306 197.072 468.245 197.711 480.57L197.743 481.226C197.903 484.439 198.191 489.779 203.515 490.387C203.818 490.418 204.042 490.706 204.01 491.01C203.978 491.282 203.754 491.49 203.499 491.506Z" fill="#E5E5E5"/>
<path d="M221.98 490.003L222.091 489.987C228.167 488.276 227.479 482.137 227.111 478.844L227.031 478.172C225.673 465.926 224.921 459.02 224.809 457.645C224.777 457.341 224.506 457.102 224.202 457.134C223.898 457.166 223.658 457.437 223.69 457.741C223.802 459.132 224.553 466.038 225.912 478.3L225.976 478.956C226.328 482.153 226.92 487.461 221.772 488.916C221.468 488.996 221.292 489.315 221.388 489.603C221.468 489.875 221.708 490.035 221.98 490.019V490.003Z" fill="#E5E5E5"/>
<path d="M203.259 491.57C203.339 492.273 205.465 493.792 208.119 493.296C210.773 492.801 210.357 490.051 208.215 489.939C206.088 489.827 203.035 489.555 203.243 491.57H203.259Z" fill="black"/>
<path d="M222.123 490.035C222.171 490.738 220.301 492.593 217.599 492.529C214.897 492.465 214.865 489.683 216.96 489.219C219.054 488.772 222.011 488.004 222.123 490.035Z" fill="black"/>
<path d="M224.937 457.613L223.354 457.741C222.859 457.773 222.443 457.421 222.395 456.942C221.548 449.012 217.567 436.878 207.431 437.709C197.503 438.525 197.647 454.799 197.855 458.908C197.871 459.42 197.488 459.851 196.976 459.883L195.489 460.011C194.946 460.059 194.498 459.644 194.466 459.116C194.338 456.814 194.258 451.458 195.553 446.31C197.887 436.99 203.163 434.656 207.16 434.32C218.398 433.409 224.553 444.712 225.768 456.622C225.816 457.118 225.449 457.565 224.937 457.613Z" fill="black"/>
<path d="M268.454 387.366C267.862 387.143 267.319 387.206 266.855 387.558L266.967 387.702C268.342 389.509 268.693 389.732 269.797 390.915C270.34 391.507 271.06 392.082 271.571 392.818C287.015 402.906 284.185 426.87 282.49 440.235C282.091 443.417 281.771 445.927 281.771 447.653C281.771 448.581 282.522 449.348 283.465 449.348C284.393 449.348 285.16 448.597 285.16 447.653C285.16 446.135 285.48 443.609 285.864 440.667C287.83 425.192 291.507 396.415 268.47 387.366H268.454Z" fill="black"/>
<path d="M288.23 453.217C288.23 456.382 285.656 458.956 282.49 458.956C279.325 458.956 276.751 456.382 276.751 453.217C276.751 450.051 279.325 447.477 282.49 447.477C285.656 447.477 288.23 450.051 288.23 453.217Z" fill="#A3A3A3"/>
<path d="M286.487 453.217C286.487 455.423 284.697 457.214 282.49 457.214C280.284 457.214 278.494 455.423 278.494 453.217C278.494 451.011 280.284 449.22 282.49 449.22C284.697 449.22 286.487 451.011 286.487 453.217Z" fill="white"/>
<path fill-rule="evenodd" clip-rule="evenodd" d="M237.199 363.418C242.859 365.496 248.118 365.672 253.698 363.53L237.199 363.418ZM257.327 339.166C258.909 339.166 260.188 339.933 260.188 340.892C260.188 341.835 258.909 342.619 257.327 342.619C255.744 342.619 254.465 341.851 254.465 340.892C254.465 339.949 255.744 339.166 257.327 339.166ZM233.25 339.166C234.833 339.166 236.112 339.933 236.112 340.892C236.112 341.835 234.833 342.619 233.25 342.619C231.668 342.619 230.389 341.851 230.389 340.892C230.389 339.949 231.668 339.166 233.25 339.166Z" fill="#434242"/>
<path d="M237.199 363.418C242.859 365.496 248.118 365.672 253.698 363.53M257.327 339.15C258.909 339.15 260.188 339.917 260.188 340.876C260.188 341.819 258.909 342.603 257.327 342.603C255.744 342.603 254.465 341.835 254.465 340.876C254.465 339.933 255.744 339.15 257.327 339.15ZM233.25 339.15C234.833 339.15 236.112 339.917 236.112 340.876C236.112 341.819 234.833 342.603 233.25 342.603C231.668 342.603 230.389 341.835 230.389 340.876C230.389 339.933 231.668 339.15 233.25 339.15Z" stroke="#434242" stroke-width="0.753186" stroke-miterlimit="22.9256" stroke-linecap="round"/>
</g>
</g>
<g clip-path="url(#clip5_962_4304)">
<path d="M68.8363 610.85C66.6651 622.226 65.9991 640.855 66.811 643.3C67.623 645.745 74.9212 652.614 76.5451 653.426C78.1689 654.238 84.2539 657.094 84.6553 655.461C85.0567 653.828 83.4419 651.41 78.9809 648.564C74.5198 645.736 75.0307 641.749 75.5872 636.257C76.1437 630.729 77.7675 627.089 79.3914 629.908C81.0061 632.763 81.0061 637.626 80.6047 639.66C80.2033 641.667 83.5605 644.924 84.7191 638.438C85.8777 631.951 85.9963 627.089 84.7191 621.816C83.4419 616.552 79.7928 610.841 79.7928 610.841H68.8454L68.8363 610.85Z" fill="#EACCB0"/>
<path d="M71.4727 528.316C72.0292 524.886 74.5654 509.076 76.0524 501.714C66.0173 499.679 59.0839 501.057 49.879 498.429C48.8664 510.116 48.3737 527.203 48.2734 532.494C47.8902 552.719 68.3345 607.703 68.3345 613.842C68.3345 613.842 78.1871 615.53 80.6503 612.301C81.745 610.841 70.1226 536.745 71.4727 528.307V528.316Z" fill="#EACCB0"/>
<path d="M191.155 610.85C193.326 622.226 193.992 640.855 193.18 643.3C192.368 645.745 185.07 652.614 183.446 653.426C181.822 654.238 175.738 657.094 175.336 655.461C174.935 653.828 176.549 651.41 181.011 648.564C185.472 645.736 184.961 641.749 184.413 636.257C183.857 630.729 182.233 627.089 180.609 629.908C178.994 632.763 178.994 637.626 179.396 639.66C179.797 641.667 176.44 644.924 175.281 638.438C174.123 631.951 174.004 627.089 175.281 621.816C176.559 616.552 180.208 610.841 180.208 610.841H191.155V610.85Z" fill="#EACCB0"/>
<path d="M188.528 528.316C187.98 524.886 185.444 509.076 183.948 501.714C193.983 499.679 200.916 501.057 210.121 498.429C211.134 510.116 211.636 527.203 211.736 532.494C212.128 552.719 191.675 607.703 191.675 613.842C191.675 613.842 181.822 615.53 179.359 612.301C178.255 610.841 189.887 536.745 188.528 528.307V528.316Z" fill="#EACCB0"/>
<path d="M154.864 311.065C127.523 293.084 101.386 304.396 92.1814 322.87C81.3982 344.509 96.5969 348.943 83.4965 358.932C79.1814 362.226 77.6579 367.417 79.3821 370.774C82.7302 377.278 90.4481 381.968 84.7737 386.073C76.1891 392.295 79.9112 400.624 92.2453 408.57H168.895C168.895 408.57 191.328 398.325 179.843 388.956C166.633 378.182 181.485 379.705 180.855 367.891C180.454 360.374 171.851 358.111 173.238 349.509C175.318 336.6 170.765 314.769 154.873 311.074L154.864 311.065Z" fill="#934215"/>
<path d="M175.838 567.982H84.4089C80.0938 576.977 60.9724 615.421 71.2538 701.887C76.8552 749.07 85.3668 817.619 91.9353 872.657H125.024C125.243 780.398 126.146 649.248 129.467 645.955H130.789C134.11 649.248 135.013 780.398 135.232 872.657H168.458C175.09 817.628 183.611 749.088 189.002 701.887C198.463 619.088 181.996 576.977 175.847 567.982H175.838Z" fill="black"/>
<path d="M130.47 512.771C135.871 492.892 171.842 428.375 170.738 425.739C169.589 423.002 174.241 425.529 160.338 417.191C146.435 408.852 148.278 393.946 148.159 389.704H112.307C112.179 393.946 114.031 408.843 100.118 417.191C86.2153 425.529 91.6525 426.35 90.4939 429.087C89.39 431.723 124.586 492.892 129.977 512.771V514.869C130.041 514.531 130.133 514.139 130.224 513.765C130.315 514.139 130.415 514.531 130.47 514.869V512.771Z" fill="#EACCB0"/>
<path d="M151.224 390.625C150.677 391.154 150.111 391.674 149.537 392.185C147.758 393.754 145.851 395.177 143.798 396.382C142.047 397.403 140.195 398.261 138.27 398.872C136.518 399.438 134.703 399.803 132.869 399.994C130.589 400.222 128.253 400.158 126 399.794C124.139 399.502 122.323 399 120.572 398.316C118.61 397.549 116.74 396.537 114.989 395.369C112.899 393.973 110.975 392.368 109.168 390.625C101.505 383.227 101.569 364.516 99.717 365.838C95.484 368.685 92.7745 360.219 92.2454 355.201C91.7163 350.184 94.0061 348.067 96.1226 350.184C98.2391 352.3 98.2664 349.946 98.8594 347.182C99.051 346.297 99.2791 345.422 99.5436 344.546C99.9359 343.214 100.392 341.9 100.894 340.605C101.523 338.99 102.235 337.403 103.038 335.87C103.941 334.127 104.963 332.44 106.103 330.843C107.325 329.119 108.703 327.504 110.217 326.036C111.832 324.485 113.602 323.098 115.518 321.939C117.579 320.699 119.805 319.741 122.132 319.075C124.841 318.299 127.605 317.98 130.424 317.98C133.134 317.98 135.843 318.363 138.443 319.13C140.742 319.805 142.95 320.781 145.003 322.021C146.9 323.18 148.67 324.567 150.257 326.127C151.763 327.596 153.131 329.219 154.344 330.934C155.476 332.531 156.488 334.21 157.382 335.952C158.176 337.485 158.888 339.063 159.508 340.669C160.01 341.955 160.457 343.269 160.84 344.591C161.095 345.449 161.323 346.316 161.506 347.191C162.099 349.946 162.126 352.3 164.243 350.193C166.359 348.076 168.649 350.193 168.12 355.21C167.591 360.237 164.881 368.694 160.648 365.848C158.796 364.525 158.869 383.236 151.197 390.634L151.224 390.625Z" fill="#F2D4B6"/>
<path d="M114.177 332.367C121.183 333.16 123.737 335.14 136.035 341.608C146.38 347.045 159.535 351.424 161.387 352.92C162.208 353.577 162.847 350.476 165.994 349.554C166.943 349.28 168.22 331.582 160.922 319.421C152.493 305.363 128.7 299.598 112.042 308.985C110.436 309.888 111.641 310.417 107.526 311.494C98.9599 313.738 93.6504 327.221 93.6504 340.304C93.6504 353.395 95.3107 347.766 97.2174 351.543C97.9929 353.085 98.7409 345.54 105.747 339.729L114.177 332.367Z" fill="#934215"/>
<path d="M198.7 430.638C197.441 428.959 167.299 419.846 162.564 418.012C162.564 418.012 163.704 431.997 152.109 445.654C147.812 450.708 138.17 453.345 130.37 453.39C122.579 453.445 113.127 451.164 108.32 445.654C96.4053 431.997 97.8558 418.012 97.8558 418.012C93.1211 419.846 63.107 428.53 61.8481 430.218C61.4558 430.729 61.1456 431.404 60.8628 432.17C70.46 435.528 73.6895 459.466 75.1218 473.479C75.8242 502.024 78.2509 505.491 82.493 519.12C85.0474 527.303 85.6678 537.521 81.6902 561.268C80.5863 567.872 75.8698 591.419 75.8698 591.419H184.541C184.541 591.419 180.08 567.845 178.721 561.268C173.94 538.251 174.998 527.185 177.918 519.12C183.154 504.651 185.973 489.48 185.973 472.384C187.405 458.371 190.078 435.947 199.676 432.59C199.393 431.824 199.083 431.158 198.69 430.638H198.7Z" fill="#77181C"/>
<path d="M195.826 655.379C194.658 601.536 183.893 562.973 178.748 539.719C173.603 516.483 174.798 477.1 173.712 475.65L130.059 475.887L86.4067 475.65C85.3119 477.109 86.5161 516.483 81.3709 539.719C76.2256 562.973 65.4515 601.536 64.2929 655.379C63.1252 709.221 61.2368 733.963 61.0908 740.513H199.037C198.891 733.963 197.003 709.221 195.835 655.379H195.826Z" fill="#47413B"/>
<path d="M84.7738 422.363C85.8594 437.389 86.4068 475.641 86.4068 475.641L93.8601 475.695C93.8601 475.695 93.3675 427.518 91.8713 420.046L84.7646 422.363H84.7738Z" fill="black"/>
<path d="M175.309 422.254C174.223 437.279 173.676 475.641 173.676 475.641L166.222 475.695C166.222 475.695 166.733 427.408 168.229 419.937L175.318 422.254H175.309Z" fill="black"/>
<path d="M79.0446 504.624C80.4587 497.399 79.7562 490.712 79.5373 486.999C78.9899 477.666 74.0727 428.813 65.3969 428.813C54.9695 428.813 41.6958 465.405 45.7463 501.723C56.192 503.739 68.5716 502.809 79.0446 504.624Z" fill="#601A1F"/>
<path d="M45.7736 501.723C45.2993 505.126 44.9982 507.543 45.7736 507.543C46.54 507.543 77.74 511.667 78.2509 510.207C78.7618 508.747 78.7891 505.919 79.0446 504.615C79.3091 503.319 46.0929 499.323 45.7645 501.714L45.7736 501.723Z" fill="#77181C"/>
<path d="M180.947 504.761C179.523 497.535 180.235 490.848 180.454 487.135C181.001 477.803 185.918 428.95 194.603 428.95C205.022 428.95 218.305 465.542 214.254 501.86C203.808 503.876 191.429 502.954 180.947 504.761Z" fill="#601A1F"/>
<path d="M214.227 501.86C214.701 505.262 214.993 507.68 214.227 507.68C213.46 507.68 182.26 511.803 181.749 510.353C181.238 508.893 181.211 506.065 180.956 504.761C180.691 503.465 213.907 499.469 214.236 501.86H214.227Z" fill="#77181C"/>
<path d="M161.433 639.751H98.677C95.329 639.751 92.6104 637.042 92.6104 633.694V569.497H167.491V633.694C167.491 637.042 164.781 639.751 161.433 639.751Z" fill="#333130"/>
<path fill-rule="evenodd" clip-rule="evenodd" d="M121.238 382.697C127.368 384.951 133.07 385.142 139.1 382.825L121.238 382.697ZM143.032 356.433C144.747 356.433 146.134 357.263 146.134 358.294C146.134 359.325 144.747 360.155 143.032 360.155C141.317 360.155 139.93 359.325 139.93 358.294C139.93 357.263 141.317 356.433 143.032 356.433ZM116.968 356.433C118.683 356.433 120.07 357.263 120.07 358.294C120.07 359.325 118.683 360.155 116.968 360.155C115.253 360.155 113.866 359.325 113.866 358.294C113.866 357.263 115.253 356.433 116.968 356.433Z" fill="#434242"/>
<path d="M121.238 382.697C127.368 384.951 133.07 385.142 139.1 382.825M143.032 356.433C144.747 356.433 146.134 357.263 146.134 358.294C146.134 359.325 144.747 360.155 143.032 360.155C141.317 360.155 139.93 359.325 139.93 358.294C139.93 357.263 141.317 356.433 143.032 356.433ZM116.968 356.433C118.683 356.433 120.07 357.263 120.07 358.294C120.07 359.325 118.683 360.155 116.968 360.155C115.253 360.155 113.866 359.325 113.866 358.294C113.866 357.263 115.253 356.433 116.968 356.433Z" stroke="#434242" stroke-width="0.756465" stroke-miterlimit="22.9256" stroke-linecap="round"/>
</g>
<defs>
<clipPath id="clip0_962_4304">
<rect width="180" height="472.539" fill="white" transform="translate(370 327.461)"/>
</clipPath>
<clipPath id="clip1_962_4304">
<rect width="162" height="481" fill="white" transform="translate(272 319)"/>
</clipPath>
<clipPath id="clip2_962_4304">
<rect width="170" height="525.564" fill="white" transform="translate(268 319)"/>
</clipPath>
<clipPath id="clip3_962_4304">
<rect width="180" height="513" fill="white" transform="translate(156 287)"/>
</clipPath>
<clipPath id="clip4_962_4304">
<rect width="180" height="533.342" fill="white" transform="translate(156 287)"/>
</clipPath>
<clipPath id="clip5_962_4304">
<rect width="180" height="498" fill="white" transform="translate(40 302)"/>
</clipPath>
</defs>
</svg>
