<svg width="510" height="513" viewBox="0 0 510 513" fill="none" xmlns="http://www.w3.org/2000/svg">
<g clip-path="url(#clip0_3261_5612)">
<path d="M28.8363 323.85C26.6651 335.226 25.9991 353.855 26.811 356.3C27.623 358.745 34.9212 365.614 36.5451 366.426C38.1689 367.238 44.2539 370.094 44.6553 368.461C45.0567 366.828 43.4419 364.41 38.9809 361.564C34.5198 358.736 35.0307 354.749 35.5872 349.257C36.1437 343.729 37.7675 340.089 39.3914 342.908C41.0061 345.763 41.0061 350.626 40.6047 352.66C40.2033 354.667 43.5605 357.924 44.7191 351.438C45.8777 344.951 45.9963 340.089 44.7191 334.816C43.4419 329.552 39.7928 323.841 39.7928 323.841H28.8454L28.8363 323.85Z" fill="#EACCB0"/>
<path d="M31.4727 241.316C32.0292 237.886 34.5654 222.076 36.0524 214.714C26.0173 212.679 19.0839 214.057 9.879 211.429C8.86637 223.116 8.37374 240.203 8.27339 245.494C7.89023 265.719 28.3345 320.703 28.3345 326.842C28.3345 326.842 38.1871 328.53 40.6503 325.301C41.745 323.841 30.1226 249.745 31.4727 241.307V241.316Z" fill="#EACCB0"/>
<path d="M151.155 323.85C153.326 335.226 153.992 353.855 153.18 356.3C152.368 358.745 145.07 365.614 143.446 366.426C141.822 367.238 135.738 370.094 135.336 368.461C134.935 366.828 136.549 364.41 141.011 361.564C145.472 358.736 144.961 354.749 144.413 349.257C143.857 343.729 142.233 340.089 140.609 342.908C138.994 345.763 138.994 350.626 139.396 352.66C139.797 354.667 136.44 357.924 135.281 351.438C134.123 344.951 134.004 340.089 135.281 334.816C136.559 329.552 140.208 323.841 140.208 323.841H151.155V323.85Z" fill="#EACCB0"/>
<path d="M148.528 241.316C147.98 237.886 145.444 222.076 143.948 214.714C153.983 212.679 160.916 214.057 170.121 211.429C171.134 223.116 171.636 240.203 171.736 245.494C172.128 265.719 151.675 320.703 151.675 326.842C151.675 326.842 141.822 328.53 139.359 325.301C138.255 323.841 149.887 249.745 148.528 241.307V241.316Z" fill="#EACCB0"/>
<path d="M114.864 24.0649C87.5232 6.08386 61.3863 17.3962 52.1814 35.8699C41.3982 57.5092 56.5969 61.9429 43.4965 71.9324C39.1814 75.2258 37.6579 80.4166 39.3821 83.7738C42.7302 90.2784 50.4481 94.9676 44.7737 99.0728C36.1891 105.295 39.9112 113.624 52.2453 121.57H128.895C128.895 121.57 151.328 111.325 139.843 101.956C126.633 91.1816 141.485 92.7051 140.855 80.891C140.454 73.3738 131.851 71.1114 133.238 62.5085C135.318 49.5997 130.765 27.7688 114.873 24.0741L114.864 24.0649Z" fill="#934215"/>
<path d="M135.838 280.982H44.4089C40.0938 289.977 20.9724 328.421 31.2538 414.887C36.8552 462.07 45.3668 530.619 51.9353 585.657H85.0238C85.2427 493.398 86.1459 362.248 89.4666 358.955H90.7894C94.1101 362.248 95.0133 493.398 95.2322 585.657H128.458C135.09 530.628 143.611 462.088 149.002 414.887C158.463 332.088 141.996 289.977 135.847 280.982H135.838Z" fill="black"/>
<path d="M90.4701 225.771C95.8708 205.892 131.842 141.375 130.738 138.739C129.589 136.002 134.241 138.529 120.338 130.191C106.435 121.852 108.278 106.946 108.159 102.704H72.3066C72.1788 106.946 74.0308 121.843 60.1185 130.191C46.2153 138.529 51.6525 139.35 50.4939 142.087C49.39 144.723 84.5859 205.892 89.9775 225.771V227.869C90.0413 227.531 90.1326 227.139 90.2238 226.765C90.315 227.139 90.4154 227.531 90.4701 227.869V225.771Z" fill="#EACCB0"/>
<path d="M111.224 103.625C110.677 104.154 110.111 104.674 109.537 105.185C107.758 106.754 105.851 108.177 103.798 109.382C102.047 110.403 100.195 111.261 98.27 111.872C96.5184 112.438 94.703 112.803 92.8693 112.994C90.5886 113.222 88.2532 113.158 85.9998 112.794C84.1388 112.502 82.3233 112 80.5717 111.316C78.6103 110.549 76.7402 109.537 74.9886 108.369C72.8995 106.973 70.9745 105.368 69.1682 103.625C61.505 96.2265 61.5689 77.5156 59.717 78.8384C55.484 81.6847 52.7745 73.2188 52.2454 68.2012C51.7163 63.1836 54.0061 61.0672 56.1226 63.1836C58.2391 65.3001 58.2664 62.9465 58.8594 60.1822C59.051 59.2973 59.2791 58.4215 59.5436 57.5457C59.9359 56.2138 60.3921 54.9001 60.8938 53.6047C61.5233 51.9899 62.2349 50.4026 63.0377 48.8699C63.9408 47.1275 64.9626 45.4398 66.103 43.8433C67.3254 42.119 68.703 40.5043 70.2173 39.0355C71.8321 37.4846 73.6019 36.098 75.5177 34.9394C77.5795 33.6987 79.8054 32.7408 82.1318 32.0748C84.8412 31.2994 87.6054 30.9801 90.4244 30.9801C93.1339 30.9801 95.8434 31.3632 98.4434 32.1295C100.742 32.8046 102.95 33.7808 105.003 35.0215C106.9 36.1801 108.67 37.5668 110.257 39.1268C111.763 40.5955 113.131 42.2194 114.344 43.9345C115.476 45.531 116.488 47.2096 117.382 48.952C118.176 50.4847 118.888 52.0629 119.508 53.6685C120.01 54.9549 120.457 56.2685 120.84 57.5914C121.095 58.4489 121.323 59.3156 121.506 60.1914C122.099 62.9465 122.126 65.3001 124.243 63.1928C126.359 61.0763 128.649 63.1928 128.12 68.2103C127.591 73.237 124.881 81.6939 120.648 78.8475C118.796 77.5247 118.869 96.2356 111.197 103.634L111.224 103.625Z" fill="#F2D4B6"/>
<path d="M74.1767 45.3667C81.1831 46.1604 83.7375 48.14 96.035 54.6081C106.38 60.0453 119.535 64.4243 121.387 65.9204C122.208 66.5773 122.847 63.4755 125.994 62.5541C126.943 62.2804 128.22 44.5821 120.922 32.4214C112.493 18.3631 88.7003 12.5975 72.042 21.9849C70.4364 22.8881 71.6406 23.4172 67.5262 24.4937C58.9599 26.7379 53.6504 40.2214 53.6504 53.3036C53.6504 66.3948 55.3107 60.766 57.2174 64.5429C57.9929 66.0846 58.7409 58.5401 65.7473 52.7288L74.1767 45.3667Z" fill="#934215"/>
<path d="M158.7 143.638C157.441 141.959 127.299 132.846 122.564 131.012C122.564 131.012 123.704 144.997 112.109 158.654C107.812 163.708 98.1696 166.345 90.3696 166.39C82.5787 166.445 73.1275 164.164 68.3197 158.654C56.4053 144.997 57.8558 131.012 57.8558 131.012C53.1211 132.846 23.107 141.53 21.8481 143.218C21.4558 143.729 21.1456 144.404 20.8628 145.17C30.46 148.528 33.6895 172.466 35.1218 186.479C35.8242 215.024 38.2509 218.491 42.493 232.12C45.0474 240.303 45.6678 250.521 41.6902 274.268C40.5863 280.872 35.8698 304.419 35.8698 304.419H144.541C144.541 304.419 140.08 280.845 138.721 274.268C133.94 251.251 134.998 240.185 137.918 232.12C143.154 217.651 145.973 202.48 145.973 185.384C147.405 171.371 150.078 148.947 159.676 145.59C159.393 144.824 159.083 144.158 158.69 143.638H158.7Z" fill="#77181C"/>
<path d="M155.826 368.379C154.658 314.536 143.893 275.973 138.748 252.719C133.603 229.483 134.798 190.1 133.712 188.65L90.0594 188.887L46.4067 188.65C45.3119 190.109 46.5161 229.483 41.3709 252.719C36.2256 275.973 25.4515 314.536 24.2929 368.379C23.1252 422.221 21.2368 446.963 21.0908 453.513H159.037C158.891 446.963 157.003 422.221 155.835 368.379H155.826Z" fill="#47413B"/>
<path d="M44.7738 135.363C45.8594 150.389 46.4068 188.641 46.4068 188.641L53.8601 188.695C53.8601 188.695 53.3675 140.518 51.8713 133.046L44.7646 135.363H44.7738Z" fill="black"/>
<path d="M135.309 135.254C134.223 150.279 133.676 188.641 133.676 188.641L126.222 188.695C126.222 188.695 126.733 140.408 128.229 132.937L135.318 135.254H135.309Z" fill="black"/>
<path d="M39.0446 217.624C40.4587 210.399 39.7562 203.712 39.5373 199.999C38.9899 190.666 34.0727 141.813 25.3969 141.813C14.9695 141.813 1.6958 178.405 5.74633 214.723C16.192 216.739 28.5716 215.809 39.0446 217.624Z" fill="#601A1F"/>
<path d="M5.77364 214.723C5.29925 218.126 4.9982 220.543 5.77364 220.543C6.53996 220.543 37.74 224.667 38.2509 223.207C38.7618 221.747 38.7891 218.919 39.0446 217.615C39.3091 216.319 6.09294 212.323 5.76452 214.714L5.77364 214.723Z" fill="#77181C"/>
<path d="M140.947 217.761C139.523 210.535 140.235 203.848 140.454 200.135C141.001 190.803 145.918 141.95 154.603 141.95C165.022 141.95 178.305 178.542 174.254 214.86C163.808 216.876 151.429 215.954 140.947 217.761Z" fill="#601A1F"/>
<path d="M174.227 214.86C174.701 218.262 174.993 220.68 174.227 220.68C173.46 220.68 142.26 224.803 141.749 223.353C141.238 221.893 141.211 219.065 140.956 217.761C140.691 216.465 173.907 212.469 174.236 214.86H174.227Z" fill="#77181C"/>
<path d="M121.433 352.751H58.677C55.329 352.751 52.6104 350.042 52.6104 346.694V282.497H127.491V346.694C127.491 350.042 124.781 352.751 121.433 352.751Z" fill="#333130"/>
<path fill-rule="evenodd" clip-rule="evenodd" d="M81.2377 95.6974C87.3682 97.9507 93.07 98.1423 99.1002 95.8251L81.2377 95.6974ZM103.032 69.4327C104.747 69.4327 106.134 70.2629 106.134 71.2938C106.134 72.3247 104.747 73.1549 103.032 73.1549C101.317 73.1549 99.9304 72.3247 99.9304 71.2938C99.9304 70.2629 101.317 69.4327 103.032 69.4327ZM76.9682 69.4327C78.6833 69.4327 80.07 70.2629 80.07 71.2938C80.07 72.3247 78.6833 73.1549 76.9682 73.1549C75.2531 73.1549 73.8665 72.3247 73.8665 71.2938C73.8665 70.2629 75.2531 69.4327 76.9682 69.4327Z" fill="#434242"/>
<path d="M81.2377 95.6974C87.3682 97.9507 93.07 98.1423 99.1002 95.8251M103.032 69.4327C104.747 69.4327 106.134 70.2629 106.134 71.2938C106.134 72.3247 104.747 73.1549 103.032 73.1549C101.317 73.1549 99.9304 72.3247 99.9304 71.2938C99.9304 70.2629 101.317 69.4327 103.032 69.4327ZM76.9682 69.4327C78.6833 69.4327 80.07 70.2629 80.07 71.2938C80.07 72.3247 78.6833 73.1549 76.9682 73.1549C75.2531 73.1549 73.8665 72.3247 73.8665 71.2938C73.8665 70.2629 75.2531 69.4327 76.9682 69.4327Z" stroke="#434242" stroke-width="0.756465" stroke-miterlimit="22.9256" stroke-linecap="round"/>
</g>
<g clip-path="url(#clip1_3261_5612)">
<g clip-path="url(#clip2_3261_5612)">
<path d="M356.817 290.916H269.182C262.487 308.362 259.289 316.762 262.449 335.046C265.608 353.33 277.034 420.542 275.858 453.729C275.174 472.987 280.338 517.897 284.548 557.597H303.795C304.103 539.129 304.826 519.699 306.329 503.476C310.664 456.668 307.494 446.37 309.469 434.02C311.011 424.434 310.067 369.861 312.995 345.758C315.933 369.861 314.989 424.434 316.521 434.02C318.496 446.37 315.336 456.668 319.661 503.476C321.164 519.689 321.8 539.12 321.993 557.597H341.298C345.604 517.897 350.796 472.91 350.122 453.729C348.957 420.542 360.372 353.33 363.541 335.046C366.701 316.752 363.503 308.352 356.808 290.916H356.817Z" fill="#F7DDCB"/>
<path d="M368.618 331.463C366.499 300.78 357.077 279.182 357.077 279.182H313.207H312.764H268.903C268.903 279.182 259.482 300.78 257.362 331.463C255.898 355.074 267.458 421.602 268.903 430.282C269.481 433.759 299.47 437.285 311.261 437.285C312.571 437.285 313.843 437.285 315.153 437.285C328.399 437.285 356.499 433.75 357.077 430.282C358.513 421.592 370.073 355.064 368.618 331.463Z" fill="black"/>
<path d="M348.196 144.748C345.19 138.429 346.558 109.557 346.336 86.996L312.986 94.616L279.635 86.996C279.413 109.557 280.781 138.429 277.776 144.748C274.972 150.644 308.275 159.468 312.735 160.624V160.749L312.986 160.682L313.236 160.749V160.624C317.687 159.478 350.989 150.644 348.186 144.748H348.196Z" fill="#866A5E"/>
<path d="M312.87 226.353C317.802 208.184 350.691 149.199 349.679 146.79C348.629 144.295 352.878 146.607 340.171 138.978C327.455 131.348 329.15 117.727 329.035 113.854H296.262C296.146 117.727 297.832 131.348 285.126 138.978C272.41 146.607 277.381 147.349 276.331 149.854C275.319 152.262 307.495 208.184 312.427 226.353V228.27C312.485 227.961 312.571 227.605 312.648 227.258C312.726 227.605 312.822 227.961 312.87 228.27V226.353Z" fill="#F7DDCB"/>
<path d="M332.281 114.509C331.771 115.01 331.241 115.492 330.701 115.964C329.035 117.428 327.253 118.767 325.335 119.884C323.707 120.838 321.973 121.628 320.172 122.216C318.534 122.736 316.839 123.083 315.134 123.256C313.005 123.468 310.828 123.41 308.718 123.073C306.984 122.803 305.288 122.331 303.651 121.695C301.82 120.973 300.077 120.038 298.439 118.95C296.493 117.649 294.692 116.147 293.006 114.519C285.848 107.602 285.906 90.1461 284.182 91.3792C280.232 94.0284 277.698 86.129 277.207 81.4375C276.716 76.7461 278.854 74.7712 280.829 76.7461C282.804 78.7209 282.833 76.5245 283.382 73.9427C283.565 73.1143 283.777 72.2954 284.018 71.4766C284.384 70.2339 284.808 69.0008 285.28 67.7966C285.867 66.2842 286.532 64.8103 287.284 63.3749C288.131 61.7469 289.085 60.1766 290.145 58.6835C291.291 57.0843 292.572 55.5622 293.998 54.1943C295.501 52.7397 297.158 51.4488 298.94 50.3795C300.867 49.2235 302.947 48.3179 305.105 47.7014C307.639 46.9789 310.23 46.6803 312.86 46.6803C315.394 46.6803 317.918 47.0463 320.345 47.7592C322.494 48.3854 324.555 49.3005 326.472 50.4565C328.245 51.5355 329.892 52.836 331.385 54.2906C332.792 55.6586 334.063 57.171 335.21 58.7798C336.269 60.273 337.213 61.8432 338.052 63.4616C338.793 64.8874 339.458 66.3613 340.036 67.8641C340.508 69.0682 340.922 70.2917 341.279 71.5248C341.52 72.3243 341.731 73.1335 341.905 73.9524C342.454 76.5245 342.483 78.7305 344.458 76.7557C346.433 74.7808 348.571 76.7557 348.08 81.4471C347.589 86.1386 345.055 94.038 341.105 91.3888C339.381 90.1557 339.439 107.621 332.281 114.528V114.509Z" fill="#FFE6D4"/>
<path d="M326.174 52.7108C319.633 53.4525 313.226 55.8223 302.447 64.4057C293.912 71.1972 286.292 77.9695 282.852 78.875C281.899 79.1255 281.87 75.4841 278.614 76.1584C277.708 76.3415 276.533 59.3771 283.344 48.0193C291.224 34.889 306.647 29.2149 320.317 33.3091C328.871 35.8716 329.362 39.6094 333.216 40.6112C341.211 42.7113 346.173 55.3021 346.173 67.5173C346.173 79.7324 344.198 77.141 342.839 78.008C341.481 78.8654 339.786 67.2379 333.245 61.8047C326.704 56.3714 326.174 52.7011 326.174 52.7011V52.7108Z" fill="#866A5E"/>
<path d="M338.312 138.583L312.552 152.387L286.792 138.583C280.521 143.804 260.195 150.403 262.035 152.493C274.828 167.021 292.611 205.198 312.552 210.313C332.493 205.198 350.276 167.021 363.069 152.493C364.909 150.403 344.573 143.814 338.312 138.583Z" fill="#F5F5F5"/>
<path d="M290.077 131.974C291.388 129.759 294.788 137.35 312.398 150.827C314.681 152.58 300.645 160.056 301.243 166.279C301.83 172.502 281.947 149.054 282.968 140.75C283.122 139.508 286.735 137.629 290.077 131.965V131.974Z" fill="#EAEAEA"/>
<path d="M335.123 131.974C333.813 129.759 330.412 137.35 312.803 150.827C310.52 152.58 324.555 160.056 323.968 166.279C323.38 172.502 343.254 149.054 342.242 140.75C342.098 139.508 338.476 137.629 335.123 131.965V131.974Z" fill="#EAEAEA"/>
<path d="M310.134 263.537C309.864 245.6 308.679 235.928 311.117 218.193C311.386 216.218 312.86 210.39 313.14 208.425C313.766 204.003 319.758 194.331 323.39 187.675C327.436 180.257 332.753 169.718 337.425 163.755C344.516 154.709 345.672 151.154 345.97 149.758C347.348 143.505 343.572 141.82 347.907 143.554C352.232 145.288 380.14 154.786 381.296 156.376C381.498 156.655 381.662 157.031 381.835 157.387C381.517 157.821 379.485 169.39 378.618 173.899C375.371 190.902 371.133 200.448 366.393 214.995C365.873 215.573 361.461 233.183 360.208 239.887C358.474 249.116 356.731 263.258 360.478 273.209C361.702 276.465 363.898 282.101 363.898 282.101L363.908 282.082C365.391 287.467 370.805 310.308 370.805 310.308L370.796 310.259C371.422 313.525 372 316.8 372.308 319.796C373.03 326.723 349.66 334.073 333.071 336.096C316.482 338.11 316.049 326.145 311.868 314.026C307.687 301.907 310.712 301.329 310.134 263.537Z" fill="#EF7F1A"/>
<path d="M358.763 267.535C357.251 266.803 357.511 271.215 349.284 272.978C341.067 274.751 333.514 275.117 334.574 276.629C335.634 278.142 336.616 282.843 337.406 288.392C338.196 293.94 337.599 298.526 346.278 296.358C354.958 294.181 366.566 291.484 364.736 282.101C362.896 272.718 360.16 268.19 358.754 267.526L358.763 267.535Z" fill="#11100F"/>
<path d="M315.702 263.21C315.972 245.263 317.157 235.591 314.72 217.866C314.45 215.891 312.966 210.063 312.687 208.088C312.061 203.676 306.069 193.994 302.437 187.337C298.391 179.92 292.476 170.045 287.813 164.092C280.733 155.046 280.165 150.817 279.856 149.43C278.479 143.168 282.245 141.492 277.92 143.216C273.595 144.95 245.677 154.449 244.531 156.038C244.328 156.318 244.165 156.694 243.991 157.05C244.309 157.484 246.351 169.053 247.209 173.562C250.455 190.565 254.694 200.111 259.434 214.658C259.954 215.236 264.366 232.845 265.618 239.55C267.352 248.779 269.096 262.921 265.348 272.872C264.115 276.128 261.929 281.764 261.929 281.764L261.909 281.745C260.426 287.139 255.012 309.97 255.012 309.97L255.021 309.922C254.405 313.188 253.817 316.463 253.509 319.459C252.786 326.386 276.157 333.736 292.746 335.759C309.334 337.772 309.768 325.808 313.949 313.689C318.13 301.57 315.105 300.992 315.683 263.21H315.702Z" fill="#EF7F1A"/>
<path d="M357.598 158.37C355.257 156.626 355.083 153.004 351.779 147.089C349.563 143.12 345.739 140.856 344.284 139.623C341.414 137.186 339.757 137.831 339.757 137.831C339.757 137.831 341.481 138.496 342.04 141.762C342.232 142.937 343.822 146.578 337.281 155.855C331.597 163.919 314.402 195.767 313.005 207.49C311.608 195.767 293.719 163.919 288.035 155.855C281.494 146.578 283.074 142.937 283.276 141.762C283.835 138.486 285.559 137.831 285.559 137.831C285.559 137.831 283.902 137.186 281.032 139.623C279.577 140.856 275.752 143.12 273.537 147.089C270.233 153.004 270.05 156.626 267.718 158.37C265.377 160.104 285.935 161.462 285.935 161.462L272.988 171.24C272.988 171.24 287.496 187.829 297.302 194.986C300.337 197.202 310.317 207.519 313.043 209.908C315.375 206.074 324.979 197.202 328.014 194.986C337.82 187.838 352.328 171.24 352.328 171.24L339.381 161.462C339.381 161.462 359.939 160.113 357.598 158.37Z" fill="#B96053"/>
<path d="M312.995 225.119C312.995 227.046 311.425 228.616 309.498 228.616C307.562 228.616 306.001 227.046 306.001 225.119C306.001 223.183 307.572 221.623 309.498 221.623C311.434 221.623 312.995 223.193 312.995 225.119Z" fill="black"/>
<path d="M314.334 256.428C314.334 258.364 312.764 259.925 310.837 259.925C308.901 259.925 307.34 258.364 307.34 256.428C307.34 254.492 308.91 252.931 310.837 252.931C312.764 252.931 314.334 254.501 314.334 256.428Z" fill="black"/>
<path d="M314.228 282.891C314.228 284.76 312.715 286.262 310.856 286.262C308.988 286.262 307.485 284.75 307.485 282.891C307.485 281.032 308.997 279.519 310.856 279.519C312.715 279.519 314.228 281.032 314.228 282.891Z" fill="black"/>
<path d="M266.793 267.535C268.316 266.803 268.055 271.215 276.273 272.978C284.49 274.751 292.033 275.117 290.983 276.629C289.923 278.142 288.941 282.843 288.151 288.392C287.361 293.94 287.958 298.526 279.278 296.358C270.599 294.181 258.99 291.484 260.83 282.101C262.661 272.718 265.406 268.19 266.803 267.526L266.793 267.535Z" fill="#11100F"/>
<path d="M245.282 331.357C243.298 341.732 242.691 358.783 243.423 361.008C244.165 363.233 250.831 369.534 252.324 370.275C253.808 371.017 259.366 373.609 259.732 372.125C260.098 370.641 258.624 368.416 254.54 365.825C250.455 363.233 250.927 359.602 251.438 354.563C251.949 349.515 253.432 346.182 254.916 348.774C256.399 351.375 256.399 355.816 256.023 357.675C255.657 359.525 258.73 362.492 259.79 356.567C260.85 350.633 260.956 346.192 259.79 341.375C258.624 336.559 255.291 331.366 255.291 331.366H245.282V331.357Z" fill="#F7DDCB"/>
<path d="M244.54 156.038C242.238 155.923 228.395 233.192 228.009 251.688C227.624 270.184 239.184 328.341 239.184 333.938C239.184 339.535 256.341 332.156 260.378 331.829C264.404 331.501 252.295 257.844 253.634 250.147C254.983 242.44 261.697 216.796 261.206 208.261C260.705 199.726 263.181 157.011 244.55 156.048L244.54 156.038Z" fill="#EF7F1A"/>
<path d="M380.699 331.357C382.683 341.732 383.29 358.783 382.548 361.008C381.807 363.233 375.14 369.534 373.657 370.275C372.173 371.017 366.615 373.609 366.239 372.125C365.873 370.641 367.347 368.416 371.431 365.825C375.506 363.233 375.044 359.602 374.533 354.563C374.023 349.515 372.539 346.182 371.056 348.774C369.572 351.375 369.572 355.816 369.938 357.675C370.304 359.525 367.231 362.492 366.181 356.567C365.121 350.633 365.016 346.192 366.181 341.375C367.347 336.559 370.68 331.366 370.68 331.366H380.689L380.699 331.357Z" fill="#F7DDCB"/>
<path d="M380.631 156.414C385.12 154.43 397.596 233.192 397.991 251.688C398.376 270.184 386.816 328.341 386.816 333.938C386.816 339.535 369.649 332.156 365.622 331.829C361.596 331.501 373.705 257.844 372.366 250.147C371.017 242.44 364.303 216.796 364.803 208.261C365.304 199.726 363.58 163.976 380.641 156.424L380.631 156.414Z" fill="#EF7F1A"/>
<path fill-rule="evenodd" clip-rule="evenodd" d="M304.47 106.349C310.067 108.411 315.278 108.584 320.798 106.465L304.47 106.349ZM324.392 82.3431C325.962 82.3431 327.224 83.1041 327.224 84.0482C327.224 84.9922 325.952 85.7533 324.392 85.7533C322.821 85.7533 321.559 84.9922 321.559 84.0482C321.559 83.1041 322.831 82.3431 324.392 82.3431ZM300.559 82.3431C302.129 82.3431 303.391 83.1041 303.391 84.0482C303.391 84.9922 302.119 85.7533 300.559 85.7533C298.988 85.7533 297.726 84.9922 297.726 84.0482C297.726 83.1041 298.998 82.3431 300.559 82.3431Z" fill="#434242"/>
<path d="M304.47 106.349C310.067 108.411 315.278 108.584 320.798 106.465M324.392 82.3431C325.962 82.3431 327.224 83.1041 327.224 84.0482C327.224 84.9922 325.952 85.7533 324.392 85.7533C322.821 85.7533 321.559 84.9922 321.559 84.0482C321.559 83.1041 322.831 82.3431 324.392 82.3431ZM300.559 82.3431C302.129 82.3431 303.391 83.1041 303.391 84.0482C303.391 84.9922 302.119 85.7533 300.559 85.7533C298.988 85.7533 297.726 84.9922 297.726 84.0482C297.726 83.1041 298.998 82.3431 300.559 82.3431Z" stroke="#434242" stroke-width="0.757999" stroke-miterlimit="22.9256" stroke-linecap="round"/>
<path d="M300.963 91.4466C305.443 91.4466 309.074 87.8151 309.074 83.3353C309.074 78.8555 305.443 75.224 300.963 75.224C296.483 75.224 292.852 78.8555 292.852 83.3353C292.852 87.8151 296.483 91.4466 300.963 91.4466Z" stroke="#2B2A29" stroke-width="0.757999" stroke-miterlimit="22.9256"/>
<path d="M324.449 91.4466C328.929 91.4466 332.561 87.8151 332.561 83.3353C332.561 78.8555 328.929 75.224 324.449 75.224C319.969 75.224 316.338 78.8555 316.338 83.3353C316.338 87.8151 319.969 91.4466 324.449 91.4466Z" stroke="#2B2A29" stroke-width="0.757999" stroke-miterlimit="22.9256"/>
<path d="M308.785 81.4278C308.785 81.4278 313.958 78.0371 316.482 81.9384" stroke="#2B2A29" stroke-width="0.757999" stroke-miterlimit="22.9256"/>
<path d="M332.744 82.9303C332.744 82.9303 342.02 73.7599 344.544 77.6516" stroke="#2B2A29" stroke-width="0.757999" stroke-miterlimit="22.9256"/>
<path d="M292.851 83.9706C292.851 83.9706 283.575 74.8002 281.051 78.6918" stroke="#2B2A29" stroke-width="0.757999" stroke-miterlimit="22.9256"/>
</g>
</g>
<g clip-path="url(#clip3_3261_5612)">
<path d="M334.1 226.285C331.971 236.511 332.607 243.04 332.041 248.346C331.683 251.682 333.745 255.955 340.128 262.029C345.733 267.334 366.829 294.676 375.103 297.532L382.78 281.593C382.78 281.593 368.809 256.291 360.865 247.17C360.865 247.17 363.136 240.329 365.772 232.167L334.1 226.285L334.1 226.285Z" fill="#EACCB0"/>
<path d="M466.99 293.956H372.794C367.206 317.12 363.161 321.874 369.044 399.818C372.224 441.965 374.222 477.95 376.236 513H414.324C415.184 443.354 416.785 356.674 419.447 354.184H420.084C422.746 356.674 424.347 443.355 425.207 513H463.834C465.927 481.277 468 448.13 470.814 405.411C475.521 333.948 474.539 320.505 466.99 293.956Z" fill="#303030"/>
<path d="M420.706 227.365C426.015 209.602 461.402 151.894 460.314 149.541C459.183 147.092 463.761 149.349 450.083 141.883C436.402 134.442 438.22 121.095 438.097 117.302H402.831C402.712 121.095 404.526 134.442 390.848 141.883C377.17 149.349 382.516 150.093 381.385 152.541C380.298 154.894 414.914 209.602 420.223 227.365V229.238C420.281 228.95 420.376 228.59 420.463 228.254C420.552 228.59 420.65 228.95 420.706 229.238V227.365Z" fill="#EACCB0"/>
<path d="M396.905 135.522C392.373 139.026 383.328 141.907 374.525 145.484C365.72 149.061 351.524 151.365 352.622 153.021C353.724 154.678 363.242 165.576 364.068 181.803C364.891 198.031 365.444 229.405 369.847 245.369C374.248 261.333 370.067 284.449 375.322 288.579C380.577 292.683 408.371 295.732 420.754 295.732V177.939C420.754 177.939 406.538 128.105 396.905 135.522V135.522Z" fill="#D2CDE7"/>
<path d="M443.763 135.522C448.298 139.026 457.341 141.907 466.146 145.484C474.951 149.061 489.147 151.365 488.045 153.021C486.946 154.678 477.428 165.576 476.602 181.803C475.776 198.031 475.226 229.405 470.824 245.369C466.421 261.333 470.603 284.449 465.348 288.579C460.09 292.683 432.298 295.732 419.916 295.732V177.939C419.916 177.939 434.132 128.105 443.763 135.522V135.522Z" fill="#C9C0D0"/>
<path d="M372.038 294.411C370.584 298.9 390.09 305.118 419.729 305.118C449.373 305.118 466.609 298.852 467.396 297.292C468.184 295.708 466.467 286.681 466.467 286.681C466.467 286.681 449.181 294.411 419.906 294.411C389.178 294.411 374.407 284.329 373.519 285.938C372.485 287.786 372.605 292.683 372.038 294.411Z" fill="black"/>
<path d="M365.772 243.185C365.175 240.016 365.765 237.327 365.965 234.038H365.962C368.464 218.388 370.314 173.954 366.32 167.161C361.486 158.927 359.916 150.069 352.935 151.918C347.829 153.286 342.654 166.537 341.405 180.82C340.4 192.318 332.354 216.924 331.338 228.398C329.497 237.136 329.648 249.283 331.228 253.075C332.807 256.868 338.424 267.022 340.219 265.63C342.016 264.238 368.248 252.379 367.206 250.987C366.169 249.594 366.345 246.234 365.773 243.185L365.772 243.185Z" fill="#D2CDE7"/>
<path d="M331.988 254.731C330.663 255.356 334.333 259.436 336.042 261.909C337.754 264.381 339.835 270.094 342.973 267.982C344.812 266.757 367.713 256.363 368.644 254.803C369.737 252.954 367.074 248.249 366.435 247.002C365.705 245.561 366.654 240.688 365.764 240.592C364.87 240.496 342.136 249.882 331.988 254.731H331.988Z" fill="#B7AAAF"/>
<path d="M505.9 226.285C508.029 236.511 507.393 243.04 507.957 248.346C508.315 251.682 506.252 255.955 499.87 262.029C494.267 267.334 473.172 294.676 464.897 297.532L457.22 281.593C457.22 281.593 471.191 256.291 479.135 247.17C479.135 247.17 476.863 240.329 474.228 232.167L505.9 226.285Z" fill="#EACCB0"/>
<path d="M474.228 243.185C474.825 240.016 474.235 237.327 474.033 234.038H474.038C471.537 218.388 469.683 173.954 473.68 167.161C478.513 158.927 480.084 150.069 487.063 151.918C492.171 153.286 497.344 166.537 498.592 180.82C499.6 192.318 507.644 216.924 508.662 228.398C510.503 237.136 510.352 249.283 508.772 253.075C507.193 256.868 501.573 267.022 499.778 265.63C497.984 264.238 471.752 252.379 472.791 250.987C473.828 249.594 473.656 246.233 474.228 243.185Z" fill="#D2CDE7"/>
<path d="M508.012 254.731C509.337 255.356 505.667 259.436 503.955 261.909C502.244 264.381 500.165 270.094 497.028 267.982C495.187 266.757 472.288 256.363 471.354 254.803C470.264 252.954 472.927 248.249 473.565 247.002C474.293 245.561 473.347 240.688 474.235 240.592C475.128 240.496 497.863 249.882 508.012 254.731Z" fill="#C0B5BE"/>
<path d="M423.978 164.76H416.961C416.275 167.521 406.284 232.07 406.2 240.184C406.125 247.241 415.913 268.39 420.548 270.383C425.183 268.39 434.817 247.241 434.742 240.184C434.658 232.07 424.665 167.521 423.978 164.76Z" fill="#EFEFEF"/>
<path d="M428.846 153.789C428.76 152.781 426.947 151.341 426.177 150.597C423.823 148.341 422.35 147.02 421.162 146.468H419.78C418.592 147.02 417.119 148.341 414.765 150.597C413.994 151.341 412.182 152.781 412.096 153.789C411.736 157.943 414.055 160.295 416.095 164.856C416.251 165.216 416.591 165.48 416.956 165.672C417.314 165.84 417.734 165.864 418.14 165.888L420.039 166.032V166.08L420.468 166.057L420.9 166.08V166.032L422.799 165.888C423.207 165.864 423.627 165.84 423.982 165.672C424.349 165.48 424.69 165.216 424.844 164.856C426.884 160.294 429.204 157.942 428.846 153.789H428.846Z" fill="white"/>
<path d="M416.241 149.973V149.205C415.994 149.444 415.713 149.709 415.439 149.973H416.241Z" fill="black"/>
<path d="M416.241 261.717V256.027H413.721V261.381L413.907 261.717H416.241Z" fill="black"/>
<path d="M417.381 253.747H419.9V248.044H417.381V253.747Z" fill="black"/>
<path d="M417.381 245.753H419.9V240.052H417.381V245.753Z" fill="black"/>
<path d="M408.92 229.79V224.101H407.99C407.716 226.117 407.469 228.037 407.249 229.79H408.92Z" fill="black"/>
<path d="M408.919 217.331C408.706 218.867 408.499 220.356 408.297 221.82H408.919V217.331Z" fill="black"/>
<path d="M417.381 237.783H419.9V232.081H417.381V237.783Z" fill="black"/>
<path d="M408.919 237.783V232.07H406.968C406.691 234.351 406.481 236.295 406.351 237.783H408.92H408.919Z" fill="black"/>
<path d="M411.082 256.027C411.567 257.084 412.066 258.14 412.578 259.173V256.027H411.082Z" fill="black"/>
<path d="M412.578 253.747V248.034H410.06V253.675L410.086 253.747H412.578Z" fill="black"/>
<path d="M417.381 165.936H419.9V160.234H417.381V165.936Z" fill="black"/>
<path d="M417.381 229.79H419.9V224.088H417.381V229.79Z" fill="black"/>
<path d="M410.06 221.82H412.579V216.12H410.06V221.82Z" fill="black"/>
<path d="M417.381 173.906H419.9V168.206H417.381V173.906Z" fill="black"/>
<path d="M417.381 261.717H419.9V256.017H417.381V261.717Z" fill="black"/>
<path d="M417.381 157.943H419.9V152.24H417.381V157.943Z" fill="black"/>
<path d="M417.381 181.9H419.9V176.196H417.381V181.9Z" fill="black"/>
<path d="M417.381 213.826H419.9V208.127H417.381V213.826Z" fill="black"/>
<path d="M417.381 221.82H419.9V216.12H417.381V221.82Z" fill="black"/>
<path d="M417.381 205.857H419.9V200.154H417.381V205.857Z" fill="black"/>
<path d="M417.381 197.863H419.9V192.16H417.381V197.863Z" fill="black"/>
<path d="M417.381 189.893H419.9V184.191H417.381V189.893Z" fill="black"/>
<path d="M407.912 248.034C408.216 248.946 408.557 249.882 408.92 250.843V248.034H407.912Z" fill="black"/>
<path d="M413.721 245.753H416.242V240.052H413.721V245.753Z" fill="black"/>
<path d="M413.721 237.783H416.242V232.081H413.721V237.783Z" fill="black"/>
<path d="M413.721 253.747H416.242V248.044H413.721V253.747Z" fill="black"/>
<path d="M413.721 229.79H416.242V224.088H413.721V229.79Z" fill="black"/>
<path d="M413.721 213.826H416.242V208.127H413.721V213.826Z" fill="black"/>
<path d="M413.721 221.82H416.242V216.12H413.721V221.82Z" fill="black"/>
<path d="M421.042 245.753H423.56V240.052H421.042V245.753Z" fill="black"/>
<path d="M432.02 245.753H433.755C434.382 243.521 434.756 241.576 434.741 240.184L434.737 240.064H432.02V245.753Z" fill="black"/>
<path d="M412.578 192.294C412.304 194.119 412.023 195.991 411.743 197.863H412.578V192.294Z" fill="black"/>
<path d="M408.92 240.064H406.204L406.2 240.184C406.185 241.576 406.564 243.521 407.202 245.753H408.919V240.064H408.92Z" fill="black"/>
<path d="M412.578 200.144H411.401C411.12 202.039 410.84 203.96 410.563 205.857H412.578V200.144Z" fill="black"/>
<path d="M410.06 237.783H412.579V232.081H410.06V237.783Z" fill="black"/>
<path d="M412.578 213.826V208.137H410.23C410.175 208.521 410.118 208.905 410.06 209.313V213.826H412.578Z" fill="black"/>
<path d="M413.721 157.943H416.242V152.24H413.721V157.943Z" fill="black"/>
<path d="M412.578 157.631V152.781C412.316 153.141 412.121 153.478 412.095 153.789C411.97 155.229 412.182 156.454 412.578 157.63V157.631Z" fill="black"/>
<path d="M410.06 245.753H412.579V240.052H410.06V245.753Z" fill="black"/>
<path d="M413.721 205.857H416.242V200.154H413.721V205.857Z" fill="black"/>
<path d="M410.06 229.79H412.579V224.088H410.06V229.79Z" fill="black"/>
<path d="M413.73 160.223C414.443 161.591 415.288 163.056 416.094 164.856L416.241 165.073V160.223H413.73Z" fill="black"/>
<path d="M413.721 197.863H416.242V192.16H413.721V197.863Z" fill="black"/>
<path d="M416.241 184.18H413.819C413.785 184.397 413.752 184.589 413.721 184.805V189.894H416.241V184.181V184.18Z" fill="black"/>
<path d="M416.241 168.841C416.011 170.257 415.734 171.962 415.425 173.906H416.241V168.841Z" fill="black"/>
<path d="M416.241 176.187H415.063C414.784 177.963 414.484 179.859 414.172 181.9H416.241V176.187Z" fill="black"/>
<path d="M416.241 263.997H415.208C415.555 264.573 415.9 265.125 416.241 265.653V263.997Z" fill="black"/>
<path d="M428.358 245.753H430.878V240.052H428.358V245.753Z" fill="black"/>
<path d="M428.358 237.783H430.878V232.081H428.358V237.783Z" fill="black"/>
<path d="M428.358 229.79H430.878V224.088H428.358V229.79Z" fill="black"/>
<path d="M428.358 221.82H430.878V216.12H428.358V221.82Z" fill="black"/>
<path d="M430.879 209.29C430.821 208.905 430.766 208.521 430.709 208.137H428.358V213.826H430.879V209.29Z" fill="black"/>
<path d="M424.7 197.863H427.219V192.16H424.7V197.863Z" fill="black"/>
<path d="M424.7 149.973H425.5C425.231 149.708 424.945 149.444 424.7 149.205V149.973Z" fill="black"/>
<path d="M424.7 205.857H427.219V200.154H424.7V205.857Z" fill="black"/>
<path d="M427.219 184.804C427.185 184.588 427.156 184.396 427.122 184.18H424.7V189.893H427.218V184.803L427.219 184.804Z" fill="black"/>
<path d="M428.358 253.747H430.878V248.044H428.358V253.747Z" fill="black"/>
<path d="M429.2 197.863C428.916 195.991 428.637 194.119 428.359 192.294V197.863H429.2Z" fill="black"/>
<path d="M424.7 213.826H427.219V208.127H424.7V213.826Z" fill="black"/>
<path d="M417.381 149.973H419.902V146.467H419.779C419.112 146.779 418.335 147.356 417.382 148.197V149.973H417.381Z" fill="black"/>
<path d="M421.042 149.973H423.56V148.197C422.607 147.356 421.829 146.78 421.162 146.467H421.042V149.973Z" fill="black"/>
<path d="M423.56 263.997H421.042V270.07C421.799 269.565 422.645 268.702 423.56 267.477V263.997Z" fill="black"/>
<path d="M432.02 221.82H432.641C432.442 220.356 432.236 218.843 432.02 217.307V221.82Z" fill="black"/>
<path d="M419.902 263.997H417.381V267.286C418.293 268.51 419.143 269.422 419.902 269.975V263.997Z" fill="black"/>
<path d="M432.02 232.07V237.783H434.59C434.459 236.295 434.247 234.351 433.974 232.07H432.02Z" fill="black"/>
<path d="M428.358 259.364C428.899 258.284 429.422 257.156 429.928 256.027H428.358V259.364Z" fill="black"/>
<path d="M424.7 256.027V261.717H427.139L427.219 261.573V256.027H424.7Z" fill="black"/>
<path d="M432.02 248.034V250.963C432.396 249.954 432.742 248.994 433.054 248.034H432.02Z" fill="black"/>
<path d="M424.7 263.997V265.845C425.08 265.269 425.466 264.669 425.852 263.997H424.7Z" fill="black"/>
<path d="M432.02 224.101V229.79H433.692C433.469 228.037 433.222 226.117 432.951 224.101H432.02Z" fill="black"/>
<path d="M421.042 221.82H423.56V216.12H421.042V221.82Z" fill="black"/>
<path d="M421.042 181.9H423.56V176.196H421.042V181.9Z" fill="black"/>
<path d="M421.042 197.863H423.56V192.16H421.042V197.863Z" fill="black"/>
<path d="M421.042 189.893H423.56V184.191H421.042V189.893Z" fill="black"/>
<path d="M421.042 165.936H423.56V160.234H421.042V165.936Z" fill="black"/>
<path d="M421.042 173.906H423.56V168.206H421.042V173.906Z" fill="black"/>
<path d="M421.042 205.857H423.56V200.154H421.042V205.857Z" fill="black"/>
<path d="M424.7 221.82H427.219V216.12H424.7V221.82Z" fill="black"/>
<path d="M421.042 237.783H423.56V232.081H421.042V237.783Z" fill="black"/>
<path d="M421.042 253.747H423.56V248.044H421.042V253.747Z" fill="black"/>
<path d="M421.042 157.943H423.56V152.24H421.042V157.943Z" fill="black"/>
<path d="M421.042 213.826H423.56V208.127H421.042V213.826Z" fill="black"/>
<path d="M421.042 229.79H423.56V224.088H421.042V229.79Z" fill="black"/>
<path d="M424.7 253.747H427.219V248.044H424.7V253.747Z" fill="black"/>
<path d="M425.516 173.906C425.207 171.962 424.93 170.257 424.7 168.865V173.906H425.516Z" fill="black"/>
<path d="M421.042 261.717H423.56V256.017H421.042V261.717Z" fill="black"/>
<path d="M424.7 229.79H427.219V224.088H424.7V229.79Z" fill="black"/>
<path d="M424.7 237.783H427.219V232.081H424.7V237.783Z" fill="black"/>
<path d="M424.7 245.753H427.219V240.052H424.7V245.753Z" fill="black"/>
<path d="M424.7 165.048L424.844 164.856C425.653 163.056 426.498 161.591 427.208 160.223H424.7V165.048H424.7Z" fill="black"/>
<path d="M428.358 205.857H430.375C430.098 203.961 429.818 202.04 429.534 200.144H428.358V205.857Z" fill="black"/>
<path d="M428.846 153.789C428.82 153.478 428.625 153.141 428.359 152.781V157.631C428.76 156.454 428.971 155.23 428.846 153.79V153.789Z" fill="black"/>
<path d="M424.7 157.943H427.219V152.24H424.7V157.943Z" fill="black"/>
<path d="M424.7 181.9H426.769C426.455 179.859 426.157 177.963 425.879 176.187H424.7V181.9Z" fill="black"/>
<path d="M400.708 128.969C401.869 127 404.899 133.746 420.572 145.748C422.602 147.309 410.115 153.982 410.638 159.503C411.162 165.048 393.468 144.188 394.372 136.794C394.509 135.69 397.728 134.01 400.708 128.969H400.708Z" fill="#9089B0"/>
<path d="M440.229 128.969C439.067 127 436.037 133.746 420.362 145.748C418.334 147.309 430.818 153.982 430.295 159.503C429.772 165.048 447.467 144.188 446.563 136.794C446.427 135.69 443.205 134.01 440.229 128.969Z" fill="#A79ECD"/>
<path d="M388.261 140.083C393.77 156.959 411.493 198.295 423.467 209.073C425.56 210.946 427.293 285.77 427.293 285.77C427.293 285.77 403.927 313.735 401.156 314.384C398.391 315.008 370.14 300.485 370.264 297.532C371.417 269.734 367.83 242.417 366.834 230.558C365.839 218.676 368.038 200.648 366.294 190.998C364.549 181.372 352.618 152.421 354.332 151.653C356.048 150.885 387.62 138.139 388.261 140.083Z" fill="#5B5A50"/>
<path d="M451.965 139.891C446.456 156.766 426.441 203.408 413.774 209.842C411.282 211.114 412.873 285.771 412.873 285.771C412.873 285.771 436.24 313.736 439.008 314.384C441.774 315.009 469.394 300.485 469.271 297.532C468.119 269.735 472.335 242.417 473.328 230.559C474.324 218.676 472.123 200.648 473.871 190.999C475.617 181.372 487.547 152.23 485.83 151.462C484.116 150.694 452.607 137.947 451.966 139.892L451.965 139.891Z" fill="#5B5A50"/>
<path d="M422.372 215.915C422.372 217.451 421.129 218.7 419.595 218.7C418.059 218.7 416.814 217.451 416.814 215.915C416.814 214.379 418.058 213.131 419.595 213.131C421.129 213.131 422.372 214.379 422.372 215.915Z" fill="black"/>
<path d="M422.372 235.167C422.372 236.703 421.129 237.952 419.595 237.952C418.059 237.952 416.814 236.703 416.814 235.167C416.814 233.631 418.058 232.383 419.595 232.383C421.129 232.383 422.372 233.631 422.372 235.167Z" fill="black"/>
<path d="M422.372 254.395C422.372 255.931 421.129 257.18 419.595 257.18C418.059 257.18 416.814 255.931 416.814 254.395C416.814 252.859 418.058 251.634 419.595 251.634C421.129 251.634 422.372 252.859 422.372 254.395Z" fill="black"/>
<path d="M422.372 273.191C422.372 274.728 421.129 275.952 419.595 275.952C418.059 275.952 416.814 274.728 416.814 273.191C416.814 271.655 418.058 270.407 419.595 270.407C421.129 270.407 422.372 271.655 422.372 273.191Z" fill="black"/>
<path d="M454.17 87.5355C450.569 84.7507 448.768 88.3752 448.113 89.888C447.323 91.7602 449.095 72.6283 448.113 67.3232C447.199 62.3781 428.592 65.4505 420.534 65.6669H419.996H419.475C411.714 65.4505 395.388 62.3781 394.473 67.3232C393.489 72.6283 395.263 91.7602 394.473 89.888C393.818 88.3752 392.018 84.7501 388.417 87.5355C384.817 90.3197 390.052 102.995 394.635 102.155C399.219 101.315 395.417 114.709 402.966 121.119C410.156 127.216 412.592 129.256 421.294 128.969C429.994 129.256 432.43 127.216 439.622 121.119C447.169 114.709 443.367 101.315 447.949 102.155C452.534 102.995 457.772 90.3203 454.169 87.5355H454.17Z" fill="#F2D4B6"/>
<path d="M393.481 96.7777C392.81 96.9461 393.266 93.0091 391.014 89.6241C389.238 86.9354 388.417 87.5355 388.417 87.5355C387.375 85.951 386.311 79.5174 386.139 77.7656C385.728 73.6851 386.079 70.828 386.415 68.0194C387.068 62.5945 390.369 55.5845 394.339 51.7205C397.411 48.7198 401.281 46.7036 405.381 45.2625C413.331 42.4783 418.88 42.91 428.599 44.0866C430.525 44.3268 433.724 45.3592 435.647 45.1908C437.954 44.9749 440.4 42.2625 439.86 40.4615C445.731 47.1353 451.656 50.8796 455.367 58.8734C459.083 66.8666 458.677 79.8536 454.921 87.8237C453.082 87.1993 451.622 88.8081 450.268 91.0877C448.915 93.3441 449.441 96.8725 448.092 96.7771C446.274 90.6317 446.682 85.135 447.037 78.7257C434.405 82.4463 421.39 84.3665 410.862 76.6365C408.706 75.0526 406.617 72.9646 403.347 73.012C399.572 73.0838 398.057 75.3165 398.585 78.941C398.851 80.7657 398.983 83.2142 399.089 84.2941C399.454 88.0627 397.104 92.6959 396.24 93.6086C395.679 94.1844 394.303 96.5855 393.481 96.7771V96.7777Z" fill="#D7B56D"/>
<path fill-rule="evenodd" clip-rule="evenodd" d="M413.886 114.789C418.829 116.607 423.427 116.76 428.294 114.892L413.886 114.789ZM431.466 93.6062C432.849 93.6062 433.969 94.2781 433.969 95.1077C433.969 95.9368 432.849 96.6092 431.466 96.6092C430.084 96.6092 428.964 95.9373 428.964 95.1077C428.964 94.2787 430.084 93.6062 431.466 93.6062ZM410.438 93.6062C411.82 93.6062 412.941 94.2781 412.941 95.1077C412.941 95.9368 411.82 96.6092 410.438 96.6092C409.056 96.6092 407.936 95.9373 407.936 95.1077C407.936 94.2787 409.056 93.6062 410.438 93.6062Z" fill="#434242"/>
<path d="M413.886 114.789C418.829 116.607 423.427 116.76 428.294 114.892M431.466 93.6062C432.849 93.6062 433.969 94.2781 433.969 95.1077C433.969 95.9368 432.849 96.6092 431.466 96.6092C430.084 96.6092 428.964 95.9373 428.964 95.1077C428.964 94.2787 430.084 93.6062 431.466 93.6062ZM410.438 93.6062C411.82 93.6062 412.941 94.2781 412.941 95.1077C412.941 95.9368 411.82 96.6092 410.438 96.6092C409.056 96.6092 407.936 95.9373 407.936 95.1077C407.936 94.2787 409.056 93.6062 410.438 93.6062Z" stroke="#434242" stroke-width="0.755757" stroke-miterlimit="22.9256" stroke-linecap="round"/>
<path d="M410.349 102.165C414.301 102.165 417.505 98.9611 417.505 95.0087C417.505 91.0563 414.301 87.8522 410.349 87.8522C406.396 87.8522 403.192 91.0563 403.192 95.0087C403.192 98.9611 406.396 102.165 410.349 102.165Z" stroke="#2B2A29" stroke-width="0.755757" stroke-miterlimit="22.9256"/>
<path d="M431.074 102.165C435.026 102.165 438.23 98.9611 438.23 95.0087C438.23 91.0563 435.026 87.8522 431.074 87.8522C427.122 87.8522 423.917 91.0563 423.917 95.0087C423.917 98.9611 427.122 102.165 431.074 102.165Z" stroke="#2B2A29" stroke-width="0.755757" stroke-miterlimit="22.9256"/>
<path d="M417.253 93.3281C417.253 93.3281 421.816 90.3393 424.044 93.7746" stroke="#2B2A29" stroke-width="0.755757" stroke-miterlimit="22.9256"/>
<path d="M438.398 94.6559C438.398 94.6559 446.582 86.563 448.81 89.9983" stroke="#2B2A29" stroke-width="0.755757" stroke-miterlimit="22.9256"/>
<path d="M403.193 95.5685C403.193 95.5685 395.009 87.4756 392.781 90.911" stroke="#2B2A29" stroke-width="0.755757" stroke-miterlimit="22.9256"/>
</g>
<g clip-path="url(#clip4_3261_5612)">
<g clip-path="url(#clip5_3261_5612)">
<path d="M144.938 118.176C139.87 119.535 133.411 133.843 129.238 149.91C125.673 163.659 115.33 188.471 116.033 189.382C119.694 194.114 150.261 200.605 153.315 199.789C156.368 198.974 162.875 149.846 158.079 141.677C153.283 133.523 151.86 116.321 144.938 118.16V118.176Z" fill="#3493A9"/>
<path d="M267.062 118.176C272.13 119.535 278.589 133.843 282.761 149.91C286.327 163.659 296.67 188.471 295.967 189.382C292.306 194.114 261.739 200.605 258.685 199.789C255.632 198.974 249.125 149.846 253.921 141.677C258.717 133.523 260.14 116.321 267.062 118.16V118.176Z" fill="#3493A9"/>
<path d="M251.571 248.006H161.069C150.006 263.817 142.636 303.641 149.382 384.583C153.842 437.996 157.056 486.356 160.141 533.358H198.958C200.397 446.213 202.954 324.744 205.992 321.722H206.663C209.701 324.76 212.243 446.213 213.698 533.358H252.514C255.6 486.356 258.813 437.996 263.273 384.583C270.036 303.641 262.666 263.833 251.587 248.006H251.571Z" fill="#3493A9"/>
<path d="M206.232 194.961C211.22 176.592 244.457 116.993 243.434 114.563C242.378 112.037 246.679 114.371 233.825 106.665C220.972 98.9595 222.682 85.1947 222.571 81.2779H189.445C189.334 85.1947 191.044 98.9595 178.191 106.665C165.337 114.371 170.357 115.122 169.302 117.648C168.279 120.078 200.796 176.592 205.784 194.961V196.896C205.848 196.592 205.928 196.224 206.008 195.873C206.088 196.224 206.184 196.592 206.232 196.896V194.961Z" fill="#CB9D83"/>
<path d="M225.4 82.1092C224.889 82.6048 224.377 83.0844 223.849 83.548C222.203 85.0028 220.444 86.3138 218.542 87.4329C216.927 88.3761 215.216 89.1595 213.442 89.735C211.827 90.2626 210.149 90.5983 208.454 90.7741C206.344 90.982 204.185 90.918 202.107 90.5983C200.396 90.3265 198.702 89.8629 197.087 89.2394C195.281 88.52 193.554 87.6087 191.939 86.5216C190.021 85.2426 188.23 83.7399 186.568 82.1412C179.485 75.2987 179.549 58.0328 177.839 59.2478C173.922 61.8697 171.428 54.052 170.932 49.4158C170.437 44.7796 172.563 42.8292 174.514 44.7796C176.464 46.73 176.496 44.5557 177.039 42.0138C177.215 41.1985 177.439 40.3831 177.663 39.5678C178.031 38.3368 178.446 37.1218 178.91 35.9228C179.485 34.436 180.157 32.9652 180.892 31.5423C181.724 29.9276 182.667 28.3769 183.722 26.9061C184.857 25.3234 186.12 23.8206 187.527 22.4617C189.014 21.0229 190.66 19.7439 192.419 18.6888C194.321 17.5377 196.384 16.6425 198.51 16.035C201.02 15.3155 203.578 15.0278 206.184 15.0278C208.678 15.0278 211.188 15.3955 213.602 16.0989C215.728 16.7224 217.774 17.6177 219.661 18.7687C221.419 19.8399 223.05 21.1188 224.521 22.5576C225.912 23.9165 227.175 25.4033 228.294 27.002C229.333 28.4728 230.276 30.0236 231.107 31.6383C231.843 33.0611 232.498 34.5159 233.074 36.0027C233.538 37.1857 233.953 38.4008 234.305 39.6158C234.545 40.4151 234.753 41.2145 234.928 42.0138C235.472 44.5557 235.504 46.73 237.454 44.7796C239.405 42.8292 241.531 44.7796 241.035 49.4158C240.54 54.052 238.046 61.8697 234.129 59.2478C232.418 58.0168 232.482 75.2987 225.4 82.1412V82.1092Z" fill="#CB9D83"/>
<path d="M268.549 118.911C267.382 117.36 240.268 109.111 235.904 107.417C235.904 107.417 231.587 114.962 220.86 127.576C216.895 132.244 207.431 140.11 206.168 140.11C204.841 140.11 195.616 132.676 191.172 127.576C180.157 114.962 176.128 107.417 176.128 107.417C171.764 109.111 145.081 117.408 143.595 118.655C142.795 119.327 142.268 119.503 142.012 120.206C150.885 123.308 153.81 145.705 155.137 158.639C155.793 185.001 160.797 187.671 161.948 200.797C162.843 211.028 162.188 217.775 158.527 239.741C157.647 245.033 152.164 267.462 151.013 271.907C150.869 272.45 151.284 272.978 151.86 272.978H261.019C261.435 272.978 261.723 272.594 261.627 272.211C260.555 268.278 254.672 245.129 253.553 239.741C249.141 218.462 248.885 207.463 250.132 200.797C252.722 186.824 257.566 173.411 257.566 157.616C258.893 144.666 261.419 123.739 270.292 120.654C270.02 119.95 268.949 119.375 268.581 118.895L268.549 118.911Z" fill="#4EA5B8"/>
<path d="M140.845 298.093C138.831 308.581 138.223 325.815 138.975 328.053C139.726 330.291 146.473 336.67 147.959 337.421C149.462 338.173 155.074 340.795 155.457 339.292C155.825 337.789 154.338 335.551 150.214 332.929C146.089 330.307 146.568 326.646 147.08 321.546C147.592 316.446 149.094 313.089 150.597 315.695C152.1 318.317 152.1 322.809 151.716 324.68C151.349 326.55 154.45 329.556 155.521 323.561C156.592 317.566 156.704 313.073 155.521 308.197C154.338 303.321 150.965 298.077 150.965 298.077H140.845V298.093Z" fill="#CB9D83"/>
<path d="M235.984 107.417C235.984 107.417 230.516 116.018 223.338 124.794C215.712 134.099 206.6 139.806 206.168 140.078C205.736 139.822 196.592 134.099 188.95 124.794C181.756 116.018 176.256 107.417 176.256 107.417L169.318 109.783C169.318 109.783 177.359 122.364 183.93 130.422C191.684 139.95 204.841 147.784 206.12 148.04V148.072L206.168 148.056L206.2 148.072V148.04C207.479 147.784 220.588 139.95 228.342 130.422C234.897 122.348 242.922 109.783 242.922 109.783L236 107.417H235.984Z" fill="#3493A9"/>
<path d="M143.275 221.82C143.787 218.654 147.464 206.296 148.839 199.502C139.566 197.615 133.139 196.128 124.65 193.714C123.723 204.506 121.933 220.812 121.837 225.688C121.469 244.377 140.366 295.184 140.366 300.827C140.366 300.827 149.462 302.41 151.732 299.388C152.755 298.046 142.012 229.589 143.259 221.804L143.275 221.82Z" fill="#CB9D83"/>
<path d="M270.26 298.093C272.274 308.581 272.882 325.815 272.13 328.053C271.379 330.291 264.632 336.67 263.145 337.421C261.643 338.173 256.031 340.795 255.648 339.292C255.28 337.789 256.767 335.551 260.891 332.929C265.016 330.307 264.536 326.646 264.025 321.546C263.513 316.446 262.01 313.089 260.508 315.695C259.005 318.317 259.005 322.809 259.389 324.68C259.756 326.55 256.655 329.556 255.584 323.561C254.512 317.566 254.401 313.073 255.584 308.197C256.767 303.321 260.14 298.077 260.14 298.077H270.26V298.093Z" fill="#CB9D83"/>
<path d="M267.83 221.82C267.318 218.654 263.641 206.296 262.266 199.502C271.539 197.615 277.965 196.128 286.47 193.714C287.398 204.506 289.188 220.812 289.284 225.688C289.636 244.377 270.755 295.184 270.755 300.827C270.755 300.827 261.659 302.41 259.373 299.388C258.365 298.046 269.093 229.589 267.846 221.804L267.83 221.82Z" fill="#CB9D83"/>
<path d="M191.7 20.927C198.318 21.6784 204.777 24.0764 215.68 32.7414C224.313 39.6158 232.003 46.4582 235.488 47.3695C236.447 47.6252 236.479 43.9482 239.773 44.6197C240.684 44.8115 241.867 27.6575 234.977 16.1788C227.015 2.90963 211.428 -2.8297 197.615 1.31093C188.966 3.90082 188.47 7.67375 184.586 8.69692C176.496 10.8232 171.492 23.5328 171.492 35.8908C171.492 48.2327 174.066 45.3391 175.441 46.2024C176.816 47.0817 177.951 35.603 184.57 30.1195C191.188 24.636 191.716 20.911 191.716 20.911L191.7 20.927Z" fill="#534D46"/>
<path d="M224.921 220.924C224.921 217.791 241.595 220.652 250.404 224.713C250.404 224.713 251.075 244.361 252.85 251.14C254.608 257.918 256.239 267.191 256.239 267.191C256.239 267.191 252.85 266.999 240.588 266.04C228.326 265.096 223.034 264.952 223.034 264.553C223.034 264.153 224.937 221.724 224.937 220.908L224.921 220.924Z" fill="#3493A9"/>
<path d="M186.76 220.924C186.76 217.791 170.085 220.652 161.276 224.713C161.276 224.713 160.605 244.361 158.83 251.14C157.072 257.918 155.441 267.191 155.441 267.191C155.441 267.191 158.83 266.999 171.092 266.04C183.354 265.096 188.646 264.952 188.646 264.553C188.646 264.153 186.744 221.724 186.744 220.908L186.76 220.924Z" fill="#3493A9"/>
<path d="M185.177 100.718L185.449 100.318C185.033 100.095 184.298 100.35 183.834 100.542C180.621 101.757 164.618 109.687 165.449 147.368C165.465 148.295 166.248 149.047 167.176 149.031H167.271C168.167 148.951 168.854 148.199 168.822 147.304C168.247 121.149 176.368 109.095 181.388 104.891C182.459 103.867 184.202 101.997 185.161 100.734L185.177 100.718Z" fill="black"/>
<path d="M163.499 204.506H163.387C157.12 203.802 156.8 197.631 156.624 194.322L156.592 193.634C155.953 181.324 155.569 174.386 155.457 173.011C155.425 172.707 155.665 172.436 155.969 172.404C156.273 172.388 156.544 172.612 156.576 172.915C156.688 174.306 157.072 181.245 157.711 193.57L157.743 194.226C157.903 197.439 158.191 202.779 163.515 203.387C163.818 203.418 164.042 203.706 164.01 204.01C163.978 204.282 163.754 204.49 163.499 204.506Z" fill="#E5E5E5"/>
<path d="M181.98 203.003L182.091 202.987C188.167 201.276 187.479 195.137 187.111 191.844L187.031 191.172C185.673 178.926 184.921 172.02 184.809 170.645C184.777 170.341 184.506 170.102 184.202 170.134C183.898 170.166 183.658 170.437 183.69 170.741C183.802 172.132 184.553 179.038 185.912 191.3L185.976 191.956C186.328 195.153 186.92 200.461 181.772 201.916C181.468 201.996 181.292 202.315 181.388 202.603C181.468 202.875 181.708 203.035 181.98 203.019V203.003Z" fill="#E5E5E5"/>
<path d="M163.259 204.57C163.339 205.273 165.465 206.792 168.119 206.296C170.773 205.801 170.357 203.051 168.215 202.939C166.088 202.827 163.035 202.555 163.243 204.57H163.259Z" fill="black"/>
<path d="M182.123 203.035C182.171 203.738 180.301 205.593 177.599 205.529C174.897 205.465 174.865 202.683 176.96 202.219C179.054 201.772 182.011 201.004 182.123 203.035Z" fill="black"/>
<path d="M184.937 170.613L183.354 170.741C182.859 170.773 182.443 170.421 182.395 169.942C181.548 162.012 177.567 149.878 167.431 150.709C157.503 151.525 157.647 167.799 157.855 171.908C157.871 172.42 157.488 172.851 156.976 172.883L155.489 173.011C154.946 173.059 154.498 172.644 154.466 172.116C154.338 169.814 154.258 164.458 155.553 159.31C157.887 149.99 163.163 147.656 167.16 147.32C178.398 146.409 184.553 157.712 185.768 169.622C185.816 170.118 185.449 170.565 184.937 170.613Z" fill="black"/>
<path d="M228.454 100.366C227.862 100.143 227.319 100.206 226.855 100.558L226.967 100.702C228.342 102.509 228.693 102.732 229.797 103.915C230.34 104.507 231.06 105.082 231.571 105.818C247.015 115.906 244.185 139.87 242.49 153.235C242.091 156.417 241.771 158.927 241.771 160.653C241.771 161.581 242.522 162.348 243.465 162.348C244.393 162.348 245.16 161.597 245.16 160.653C245.16 159.135 245.48 156.609 245.864 153.667C247.83 138.192 251.507 109.415 228.47 100.366H228.454Z" fill="black"/>
<path d="M248.23 166.217C248.23 169.382 245.656 171.956 242.49 171.956C239.325 171.956 236.751 169.382 236.751 166.217C236.751 163.051 239.325 160.477 242.49 160.477C245.656 160.477 248.23 163.051 248.23 166.217Z" fill="#A3A3A3"/>
<path d="M246.487 166.217C246.487 168.423 244.697 170.214 242.49 170.214C240.284 170.214 238.494 168.423 238.494 166.217C238.494 164.011 240.284 162.22 242.49 162.22C244.697 162.22 246.487 164.011 246.487 166.217Z" fill="white"/>
<path fill-rule="evenodd" clip-rule="evenodd" d="M197.199 76.4178C202.859 78.4961 208.118 78.672 213.698 76.5297L197.199 76.4178ZM217.327 52.1656C218.909 52.1656 220.188 52.9329 220.188 53.8921C220.188 54.8354 218.909 55.6187 217.327 55.6187C215.744 55.6187 214.465 54.8514 214.465 53.8921C214.465 52.9489 215.744 52.1656 217.327 52.1656ZM193.25 52.1656C194.833 52.1656 196.112 52.9329 196.112 53.8921C196.112 54.8354 194.833 55.6187 193.25 55.6187C191.668 55.6187 190.389 54.8514 190.389 53.8921C190.389 52.9489 191.668 52.1656 193.25 52.1656Z" fill="#434242"/>
<path d="M197.199 76.4178C202.859 78.4961 208.118 78.672 213.698 76.5297M217.327 52.1496C218.909 52.1496 220.188 52.9169 220.188 53.8762C220.188 54.8194 218.909 55.6028 217.327 55.6028C215.744 55.6028 214.465 54.8354 214.465 53.8762C214.465 52.9329 215.744 52.1496 217.327 52.1496ZM193.25 52.1496C194.833 52.1496 196.112 52.9169 196.112 53.8762C196.112 54.8194 194.833 55.6028 193.25 55.6028C191.668 55.6028 190.389 54.8354 190.389 53.8762C190.389 52.9329 191.668 52.1496 193.25 52.1496Z" stroke="#434242" stroke-width="0.753186" stroke-miterlimit="22.9256" stroke-linecap="round"/>
</g>
</g>
<defs>
<clipPath id="clip0_3261_5612">
<rect width="180" height="498" fill="white" transform="translate(0 15)"/>
</clipPath>
<clipPath id="clip1_3261_5612">
<rect width="162" height="481" fill="white" transform="translate(232 32)"/>
</clipPath>
<clipPath id="clip2_3261_5612">
<rect width="170" height="525.564" fill="white" transform="translate(228 32)"/>
</clipPath>
<clipPath id="clip3_3261_5612">
<rect width="180" height="472.539" fill="white" transform="translate(330 40.4615)"/>
</clipPath>
<clipPath id="clip4_3261_5612">
<rect width="180" height="513" fill="white" transform="translate(116)"/>
</clipPath>
<clipPath id="clip5_3261_5612">
<rect width="180" height="533.342" fill="white" transform="translate(116)"/>
</clipPath>
</defs>
</svg>
